<svg version="1.1" xmlns="http://www.w3.org/2000/svg" style="display: block;" viewBox="0 0 2048 2048" width="1024" height="1024">
<defs>
	<linearGradient id="Gradient1" gradientUnits="userSpaceOnUse" x1="1573.62" y1="467.284" x2="1556.38" y2="467.743">
		<stop class="stop0" offset="0" stop-opacity="1" stop-color="rgb(53,37,52)"/>
		<stop class="stop1" offset="1" stop-opacity="1" stop-color="rgb(78,47,79)"/>
	</linearGradient>
	<linearGradient id="Gradient2" gradientUnits="userSpaceOnUse" x1="1507.43" y1="137.178" x2="1563.77" y2="370.337">
		<stop class="stop0" offset="0" stop-opacity="1" stop-color="rgb(61,40,66)"/>
		<stop class="stop1" offset="1" stop-opacity="1" stop-color="rgb(95,73,90)"/>
	</linearGradient>
	<linearGradient id="Gradient3" gradientUnits="userSpaceOnUse" x1="492.94" y1="1725.43" x2="505.06" y2="1733.57">
		<stop class="stop0" offset="0" stop-opacity="1" stop-color="rgb(90,142,161)"/>
		<stop class="stop1" offset="1" stop-opacity="1" stop-color="rgb(98,170,173)"/>
	</linearGradient>
	<linearGradient id="Gradient4" gradientUnits="userSpaceOnUse" x1="1224.78" y1="1526.89" x2="1237.96" y2="1607.53">
		<stop class="stop0" offset="0" stop-opacity="1" stop-color="rgb(207,203,199)"/>
		<stop class="stop1" offset="1" stop-opacity="1" stop-color="rgb(248,244,212)"/>
	</linearGradient>
	<linearGradient id="Gradient5" gradientUnits="userSpaceOnUse" x1="1307.85" y1="1492.92" x2="1291.22" y2="1543.65">
		<stop class="stop0" offset="0" stop-opacity="1" stop-color="rgb(219,208,192)"/>
		<stop class="stop1" offset="1" stop-opacity="1" stop-color="rgb(239,238,205)"/>
	</linearGradient>
	<linearGradient id="Gradient6" gradientUnits="userSpaceOnUse" x1="1255.73" y1="1529.59" x2="1319.85" y2="1512.25">
		<stop class="stop0" offset="0" stop-opacity="1" stop-color="rgb(41,39,43)"/>
		<stop class="stop1" offset="1" stop-opacity="1" stop-color="rgb(101,66,106)"/>
	</linearGradient>
	<linearGradient id="Gradient7" gradientUnits="userSpaceOnUse" x1="1278.05" y1="1508.62" x2="1269.69" y2="1566.28">
		<stop class="stop0" offset="0" stop-opacity="1" stop-color="rgb(204,190,192)"/>
		<stop class="stop1" offset="1" stop-opacity="1" stop-color="rgb(248,242,208)"/>
	</linearGradient>
	<linearGradient id="Gradient8" gradientUnits="userSpaceOnUse" x1="588.865" y1="1657.67" x2="605.154" y2="1673.38">
		<stop class="stop0" offset="0" stop-opacity="1" stop-color="rgb(76,45,56)"/>
		<stop class="stop1" offset="1" stop-opacity="1" stop-color="rgb(91,58,92)"/>
	</linearGradient>
	<linearGradient id="Gradient9" gradientUnits="userSpaceOnUse" x1="1640.22" y1="784.351" x2="1646.82" y2="783.336">
		<stop class="stop0" offset="0" stop-opacity="1" stop-color="rgb(41,35,46)"/>
		<stop class="stop1" offset="1" stop-opacity="1" stop-color="rgb(68,47,65)"/>
	</linearGradient>
</defs>
<path transform="translate(0,0)" fill="rgb(241,236,203)" d="M 0 0 L 1336.21 0 L 2048 0 L 2048 2048 L 785.104 2048 L 761.005 2048 L 627.568 2048 L 605.726 2048 L 422.138 2048 L 405.089 2048 L 316.328 2048 L 297.149 2048 L 293.655 2048 L 272.788 2048 L 248.697 2048 L 237.928 2048 L 232.728 2048 L 221.105 2048 L 0 2048 L 0 750.857 L 0 0 z"/>
<path transform="translate(0,0)" fill="rgb(57,46,56)" d="M 1667.62 1038.23 C 1669.62 1038.83 1671.69 1039.61 1673.75 1039.94 A 1127.51 1127.51 0 0 1 1663.33 1066.67 C 1664.25 1057.12 1665.99 1047.68 1667.62 1038.23 z"/>
<path transform="translate(0,0)" fill="rgb(57,46,56)" d="M 1595.52 436.439 C 1598.27 428.234 1601.16 419.556 1605.6 412.084 A 188.437 188.437 0 0 1 1601.79 438.508 C 1600.44 438.026 1599.86 437.732 1598.85 436.663 C 1598.58 436.376 1598.33 436.067 1598.07 435.769 L 1595.52 436.439 z"/>
<path transform="translate(0,0)" fill="rgb(57,46,56)" d="M 1676.77 968.807 A 291.154 291.154 0 0 1 1676.71 998.373 C 1675.11 1001.44 1674.79 1002.29 1671.8 1004.24 L 1672.18 993.257 C 1675.65 987.467 1674.66 975.793 1676.77 968.807 z"/>
<path transform="translate(0,0)" fill="url(#Gradient1)" d="M 1560.62 462.716 C 1567.49 449.711 1574.9 437.082 1582.41 424.441 A 2163.04 2163.04 0 0 1 1566.3 478.051 C 1563.32 485.61 1560.49 494.509 1555.25 500.83 L 1554.08 500.478 C 1552.57 489.244 1558.66 475.301 1560.43 464.024 L 1560.62 462.716 z"/>
<path transform="translate(0,0)" fill="rgb(67,46,67)" d="M 1672.89 423.522 C 1681.75 434.945 1675.39 494.009 1673.56 510.125 C 1664.05 494.337 1668.76 441.202 1672.89 423.522 z"/>
<path transform="translate(0,0)" fill="rgb(67,46,67)" d="M 1513.79 393.097 L 1514.27 393.397 C 1513.5 394.872 1513.79 394.679 1512.8 395.587 C 1482.19 423.701 1437.47 437.792 1396.42 436.945 L 1395.82 436.63 C 1398.31 435.178 1436.78 427.043 1444.57 424.634 C 1469.46 416.934 1491.23 405.837 1513.79 393.097 z"/>
<path transform="translate(0,0)" fill="rgb(67,46,67)" d="M 1556.37 396.667 C 1550.16 406.927 1544.03 416.73 1536.01 425.718 C 1527.64 435.09 1518.03 443.531 1510.22 453.356 C 1503.62 459.546 1492.12 477.265 1483.96 479.959 L 1483.34 478.595 C 1486.96 464.948 1499.95 452.032 1508.88 441.248 C 1524.95 426.821 1541.99 412.807 1556.37 396.667 z"/>
<path transform="translate(0,0)" fill="rgb(67,46,67)" d="M 1614.93 465.556 C 1615.85 452.904 1622.61 421.643 1628.73 410.748 L 1629.6 411.009 C 1631.75 423.661 1628.68 447.438 1626.99 460.605 C 1624.26 478.702 1621.98 498.499 1615.31 515.597 C 1613.07 498.819 1615.65 482.289 1614.93 465.556 z"/>
<path transform="translate(0,0)" fill="rgb(78,56,78)" d="M 1529.45 452.599 C 1541.03 432.022 1558.29 408.098 1580.7 398.454 C 1560.23 424.063 1537.8 451.175 1525.04 481.716 C 1520.05 489.896 1514.99 496.686 1507.89 503.162 C 1513.1 485.4 1521.42 469.21 1529.45 452.599 z"/>
<path transform="translate(0,0)" fill="rgb(67,46,67)" d="M 1653.88 388.824 C 1653.14 413.187 1654.01 437.802 1651.78 462.078 C 1654.23 463.322 1657.36 464.345 1658.68 466.889 C 1658.12 471.16 1658.01 475.272 1658.05 479.576 C 1655.02 484.083 1652.63 488.448 1647.73 491.142 C 1646.66 496.078 1645.7 506.991 1641.49 509.83 C 1639.49 507.799 1639.56 506.034 1638.96 503.318 C 1643.76 465.097 1640.91 425.716 1653.88 388.824 z"/>
<path transform="translate(0,0)" fill="rgb(241,236,203)" d="M 1651.78 462.078 C 1654.23 463.322 1657.36 464.345 1658.68 466.889 C 1658.12 471.16 1658.01 475.272 1658.05 479.576 C 1655.02 484.083 1652.63 488.448 1647.73 491.142 A 1887.79 1887.79 0 0 0 1651.78 462.078 z"/>
<path transform="translate(0,0)" fill="rgb(67,46,67)" d="M 321.575 1932.71 C 322.89 1935.5 323.282 1935.6 325.981 1937.18 C 303.78 1964.78 281.054 1991.62 257.916 2018.43 C 249.506 2028.17 241.553 2038.66 232.728 2048 L 221.105 2048 C 237.237 2030.53 253.579 2013.15 269.118 1995.16 C 286.873 1974.6 303.898 1953.36 321.575 1932.71 z"/>
<path transform="translate(0,0)" fill="rgb(67,46,67)" d="M 1745.6 325.401 L 1743.21 330.006 L 1744.12 330.715 L 1748.91 329.749 L 1742 334.829 C 1741.6 359.243 1733.36 379.907 1737.39 404.964 C 1738.34 410.923 1743 426.742 1740.07 431.477 L 1738.25 432.206 C 1732.13 427.115 1729.21 399.026 1726.44 390.177 L 1726.15 391.85 C 1723.4 408.322 1723.46 427.388 1724.66 444.058 C 1725.13 450.662 1726.42 457.4 1726.57 463.991 C 1726.65 467.053 1726.86 469.536 1725.25 472.144 C 1722.24 470.807 1720.88 467.019 1719.72 464.137 C 1715.23 452.997 1714.85 440.509 1712.62 428.806 C 1708.04 459.645 1710.23 485.474 1700.81 516.368 L 1699.97 516.52 C 1695.49 503.102 1699.24 448.404 1702.19 433.404 C 1703.97 424.366 1707.78 415.892 1709.77 406.927 C 1712.21 395.922 1713.43 384.657 1717.28 373.994 C 1722.28 360.126 1730.65 347.342 1735.96 333.53 C 1722.91 333.837 1709.18 333.358 1696.29 335.521 C 1670.68 339.815 1640.89 359.529 1618.34 372.928 C 1606.69 379.853 1595.75 387.124 1582.85 391.596 C 1609.18 366.586 1639.89 349.092 1673.35 335.506 C 1641.72 333.223 1625.63 354.479 1597.74 361.045 C 1605.14 356.768 1612.85 353.079 1620.25 348.818 C 1627.28 344.77 1649.24 337.429 1653.19 332.981 L 1652.24 331.794 L 1652.97 331.34 C 1656.98 331.526 1661.15 330.666 1665.12 330.131 L 1667 331.771 C 1667.27 331.056 1667.71 330.382 1667.79 329.625 L 1664.17 329.21 L 1664.2 327.646 C 1687.57 329.484 1704.16 330.716 1727.95 328.704 C 1730.78 328.464 1732.8 328.854 1735.53 329.683 C 1735.72 329.74 1738.39 330.615 1738.75 330.645 C 1740.62 330.804 1744.14 326.75 1745.6 325.401 z"/>
<path transform="translate(0,0)" fill="rgb(78,56,78)" d="M 1736.75 736.714 A 950.866 950.866 0 0 0 1710.06 608.429 C 1702.21 580.15 1691.31 550.934 1686.8 521.969 C 1685.55 513.976 1683.92 494.589 1688.67 487.9 C 1693.5 490.832 1695.01 502.915 1696.33 508.31 C 1704.33 541.079 1715.09 572.672 1724 605.127 A 624.283 624.283 0 0 1 1746.84 740.953 C 1747.7 759.514 1748.19 779.13 1745.37 797.509 C 1741.16 774.75 1737.86 750.98 1728.73 729.577 C 1729.47 751.004 1732.47 772.314 1733.45 793.744 A 476.772 476.772 0 0 1 1716.13 940.422 C 1715.98 919.575 1715.51 899.47 1711.35 878.953 C 1707.71 891.505 1708.92 906.633 1707.07 919.8 C 1701.24 961.289 1691.51 1001.78 1673.75 1039.94 C 1671.69 1039.61 1669.62 1038.83 1667.62 1038.23 C 1669.37 1026.95 1669.84 1015.47 1671.8 1004.24 C 1674.79 1002.29 1675.11 1001.44 1676.71 998.373 C 1682.85 993.343 1694.74 913.038 1695.94 901.029 A 720.847 720.847 0 0 0 1699.99 828.891 C 1699.97 809.678 1698.2 789.599 1700.33 770.517 C 1708.04 802.443 1714.38 836.287 1716.86 869.055 C 1720.58 853.62 1719.2 836.427 1719.13 820.597 C 1718.94 780.384 1718.05 740.35 1712.44 700.475 C 1710.22 684.692 1706.61 669.221 1703.72 653.567 C 1716.21 680.485 1725.61 709.167 1736.75 736.714 z"/>
<path transform="translate(0,0)" fill="url(#Gradient2)" d="M 1334.8 179.871 C 1425.15 152.931 1526.4 135.814 1618.55 164.806 C 1654.02 175.965 1680.07 192.869 1697.37 226.331 C 1751.78 214.382 1848.77 200.446 1899.84 223.701 C 1910.5 228.557 1932.32 240.549 1936.65 251.976 L 1935.7 253.295 L 1935.43 252.255 C 1933.74 252.352 1933.29 253.051 1931.96 254.037 L 1933.38 253.549 C 1914.73 257.531 1896.99 262.967 1878.82 268.596 C 1834.11 285.566 1790.05 305.221 1748.91 329.749 L 1744.12 330.715 L 1743.21 330.006 L 1745.6 325.401 C 1744.14 326.75 1740.62 330.804 1738.75 330.645 C 1738.39 330.615 1735.72 329.74 1735.53 329.683 C 1732.8 328.854 1730.78 328.464 1727.95 328.704 C 1704.16 330.716 1687.57 329.484 1664.2 327.646 C 1657.78 325.161 1648.84 324.666 1641.96 323.438 C 1656.77 317.674 1671.25 310.247 1685.97 304.057 C 1743.34 279.918 1799.75 259.476 1861.79 250.716 C 1869.97 249.561 1878.76 246.812 1886.79 246.186 C 1894.84 245.559 1903.66 248.493 1911.95 248.248 L 1909.75 246.421 C 1887.69 243.451 1822.8 237.722 1802.84 241.874 C 1790.35 241.936 1778.7 246.126 1766.42 247.03 C 1756.77 247.74 1746.68 246.642 1736.99 246.529 A 291.182 291.182 0 0 0 1693.35 249.427 L 1692 249.454 L 1692.11 248.474 L 1691.16 248.075 L 1690.84 249.773 L 1693.41 252.026 L 1692.87 253.357 L 1693.18 252.09 L 1692.8 251.754 L 1691.34 253.879 C 1685.78 254.426 1676.42 267.821 1667.06 271.834 L 1667.13 269.688 L 1667.94 270.914 C 1674.51 266.165 1688.42 251.938 1689.58 243.96 C 1689.66 243.443 1689.69 242.922 1689.74 242.403 C 1689.82 241.874 1689.92 241.348 1689.98 240.816 C 1690.85 232.578 1680.09 221.27 1675.21 215.098 C 1669.07 207.747 1663.13 200.896 1655.38 195.207 C 1629.53 176.244 1588.43 166.572 1557.07 163.738 C 1530.33 161.32 1501.44 161.711 1474.85 165.659 C 1408.29 175.543 1330.39 209.177 1278.88 252.578 C 1250.46 276.52 1234.11 307.536 1214.03 337.941 A 368.307 368.307 0 0 1 1183.65 377.832 C 1175.39 386.345 1164.83 392.894 1155.1 399.606 C 1166.04 379.194 1191.2 349.711 1206.53 331.112 C 1192.95 341.605 1178.36 350.8 1164.52 360.983 C 1184.8 333.628 1210.65 309.468 1234.22 284.87 C 1217.81 295.171 1201.07 302.372 1183.21 309.721 C 1192.12 301.931 1202.51 295.506 1211.87 288.196 C 1234.39 270.59 1256.5 252.447 1279.97 236.087 C 1264.15 241.804 1248.11 247.101 1231.72 250.925 C 1269.91 225.528 1316.45 215.472 1356.64 193.853 C 1334.96 196.791 1313.26 202.551 1291.89 207.269 C 1323.62 189.811 1356.7 183.288 1391.75 176.626 C 1402.86 174.515 1415.7 173.329 1426.19 169.235 C 1398.71 167.974 1365.08 179.635 1334.8 179.871 z"/>
<path transform="translate(0,0)" fill="rgb(57,46,56)" d="M 1745.6 325.401 C 1754.88 319.537 1765.09 315.066 1774.8 309.957 C 1802.64 295.317 1830.93 280.147 1860.93 270.407 C 1866.19 268.7 1873.62 265.969 1878.82 268.596 C 1834.11 285.566 1790.05 305.221 1748.91 329.749 L 1744.12 330.715 L 1743.21 330.006 L 1745.6 325.401 z"/>
<path transform="translate(0,0)" fill="rgb(197,200,207)" d="M 1702.52 237.031 C 1730.42 228.953 1761.81 226.455 1790.68 224.464 C 1825.47 222.064 1882.17 220.765 1910.04 245.012 L 1909.75 246.421 C 1887.69 243.451 1822.8 237.722 1802.84 241.874 C 1790.35 241.936 1778.7 246.126 1766.42 247.03 C 1756.77 247.74 1746.68 246.642 1736.99 246.529 A 291.182 291.182 0 0 0 1693.35 249.427 C 1694.94 244.531 1699.06 240.69 1702.52 237.031 z"/>
<path transform="translate(0,0)" fill="rgb(218,212,185)" d="M 0 0 L 1336.21 0 C 1310.19 8.02315 1283.23 13.5222 1256.98 20.871 A 2343.74 2343.74 0 0 0 1083.69 75.5515 C 1022.61 97.3495 963.314 123.278 904.295 150.034 A 2982.17 2982.17 0 0 0 337.537 486.456 C 310.18 506.811 283.851 528.342 257.17 549.549 C 228.344 572.461 199.24 595.079 170.695 618.339 C 155.183 630.98 140.232 644.283 124.594 656.777 C 97.2947 678.588 69.7626 700.633 41.716 721.447 C 28.0498 731.589 13.7028 740.783 0 750.857 L 0 0 z"/>
<path transform="translate(0,0)" fill="rgb(78,56,78)" d="M 1183.65 377.832 A 368.307 368.307 0 0 0 1214.03 337.941 C 1234.11 307.536 1250.46 276.52 1278.88 252.578 C 1330.39 209.177 1408.29 175.543 1474.85 165.659 C 1501.44 161.711 1530.33 161.32 1557.07 163.738 C 1588.43 166.572 1629.53 176.244 1655.38 195.207 C 1663.13 200.896 1669.07 207.747 1675.21 215.098 C 1680.09 221.27 1690.85 232.578 1689.98 240.816 C 1689.92 241.348 1689.82 241.874 1689.74 242.403 C 1689.69 242.922 1689.66 243.443 1689.58 243.96 C 1688.42 251.938 1674.51 266.165 1667.94 270.914 L 1667.13 269.688 L 1667.06 271.834 C 1676.42 267.821 1685.78 254.426 1691.34 253.879 L 1692.8 251.754 L 1693.18 252.09 L 1692.87 253.357 L 1693.41 252.026 L 1690.84 249.773 L 1691.16 248.075 L 1692.11 248.474 L 1692 249.454 L 1693.35 249.427 A 291.182 291.182 0 0 1 1736.99 246.529 C 1746.68 246.642 1756.77 247.74 1766.42 247.03 C 1778.7 246.126 1790.35 241.936 1802.84 241.874 C 1822.8 237.722 1887.69 243.451 1909.75 246.421 L 1911.95 248.248 C 1903.66 248.493 1894.84 245.559 1886.79 246.186 C 1878.76 246.812 1869.97 249.561 1861.79 250.716 C 1799.75 259.476 1743.34 279.918 1685.97 304.057 C 1671.25 310.247 1656.77 317.674 1641.96 323.438 C 1648.84 324.666 1657.78 325.161 1664.2 327.646 L 1664.17 329.21 L 1667.79 329.625 C 1667.71 330.382 1667.27 331.056 1667 331.771 L 1665.12 330.131 C 1661.15 330.666 1656.98 331.526 1652.97 331.34 L 1652.24 331.794 C 1638.73 332.589 1624.63 326.686 1611.03 325.712 C 1594.93 331.556 1579.61 341.973 1564.56 350.143 A 654.028 654.028 0 0 1 1498.07 382.004 A 425.384 425.384 0 0 1 1437.34 402.373 C 1414.51 407.994 1391.34 411.735 1368.83 418.695 C 1356.14 422.621 1315.17 437.961 1308.97 449.871 C 1308.19 451.386 1309.54 453.75 1310.2 455.222 C 1323.22 453.48 1337.32 455.575 1350.44 455.827 C 1381.09 456.413 1417.72 456.028 1446.91 446.313 C 1458.63 442.411 1469.42 436.651 1480.35 430.964 C 1475.89 435.35 1468.96 440.553 1468.25 447.116 L 1469.69 448.789 C 1479.44 451.122 1499.05 443.946 1508.88 441.248 C 1499.95 452.032 1486.96 464.948 1483.34 478.595 L 1483.96 479.959 C 1492.12 477.265 1503.62 459.546 1510.22 453.356 C 1516.61 452.817 1523.04 452 1529.45 452.599 C 1521.42 469.21 1513.1 485.4 1507.89 503.162 C 1514.99 496.686 1520.05 489.896 1525.04 481.716 C 1525.7 481.787 1526.36 481.895 1527.02 481.929 C 1539.9 482.594 1552.13 470.992 1560.62 462.716 L 1560.43 464.024 C 1558.66 475.301 1552.57 489.244 1554.08 500.478 L 1555.25 500.83 C 1560.49 494.509 1563.32 485.61 1566.3 478.051 C 1574.25 474.752 1580.49 468.945 1586.66 463.114 C 1588.65 454.272 1592.21 444.873 1595.52 436.439 L 1598.07 435.769 C 1598.33 436.067 1598.58 436.376 1598.85 436.663 C 1599.86 437.732 1600.44 438.026 1601.79 438.508 C 1599.78 451.252 1597.84 464.282 1594.9 476.838 C 1596.41 477.004 1598.03 477.243 1599.55 477.16 C 1606.33 476.788 1610.77 470.219 1614.93 465.556 C 1615.65 482.289 1613.07 498.819 1615.31 515.597 C 1621.98 498.499 1624.26 478.702 1626.99 460.605 C 1630.58 462.694 1631.99 465.14 1632.94 469.061 C 1635.18 478.381 1633.3 495.709 1638.96 503.318 C 1639.56 506.034 1639.49 507.799 1641.49 509.83 C 1645.7 506.991 1646.66 496.078 1647.73 491.142 C 1652.63 488.448 1655.02 484.083 1658.05 479.576 C 1658.01 475.272 1658.12 471.16 1658.68 466.889 C 1665.54 481.844 1663.59 562.872 1664.28 585.177 C 1665.88 636.784 1671.25 687.939 1667.9 739.678 C 1665.61 775.053 1660.67 808.898 1651.62 843.189 A 704.34 704.34 0 0 1 1647.38 858.793 L 1646.82 846.56 C 1646.69 845.97 1646.55 845.382 1646.42 844.791 C 1646 842.776 1646.13 841.197 1646.45 839.159 L 1644.03 838.065 L 1644.86 838.131 L 1644.41 839.185 C 1641.17 846.852 1639.21 855.104 1636.66 863.031 C 1631.26 879.809 1625.73 896.652 1618.87 912.898 C 1597.51 963.43 1572 1011.3 1545.67 1059.36 C 1522.82 1101.06 1499.96 1142.26 1473.79 1182 C 1469.53 1188.47 1454.24 1207.53 1454.7 1213.73 L 1457.34 1217.84 L 1460.06 1215.81 C 1459.76 1220.81 1453.3 1228.96 1450.49 1233.41 C 1428.14 1268.77 1404.7 1296.93 1376.56 1327.52 C 1416 1301.76 1502.63 1195.67 1526.93 1155.09 A 223.191 223.191 0 0 0 1541.86 1125.8 C 1545.74 1116.52 1548.94 1105.64 1554.45 1097.24 C 1554.62 1096.97 1554.81 1096.72 1554.98 1096.46 C 1547.74 1132.44 1534.7 1166.04 1521.84 1200.28 C 1545.54 1163.91 1573.74 1122.83 1586.92 1081.37 C 1592.85 1062.71 1595.67 1043.47 1599.91 1024.41 C 1600.16 1053.81 1596.61 1097.26 1590.7 1125.66 C 1618.42 1061.9 1634.27 1027.58 1641.45 956.885 C 1646.49 975.306 1644.54 1022.04 1645.44 1043.36 C 1653.24 1015.92 1661.3 988.04 1665.12 959.72 C 1667.4 942.816 1666.91 925.614 1669.52 908.768 L 1669.78 907.162 C 1672.92 927.359 1676.81 948.313 1676.77 968.807 C 1674.66 975.793 1675.65 987.467 1672.18 993.257 C 1666.97 1000.22 1660.01 1038.9 1656.54 1050.47 C 1649.05 1075.43 1638.16 1104.31 1623.27 1125.83 C 1623.49 1104.51 1628.1 1081.92 1631.38 1060.82 C 1626.62 1073.17 1623.4 1086.12 1618.6 1098.48 C 1606.88 1128.61 1585.96 1168.09 1565.51 1192.89 C 1568.92 1172.16 1575.3 1151.66 1579.16 1130.9 C 1570.54 1145.85 1563.81 1161.99 1555.29 1177.05 C 1537.61 1208.27 1512.12 1244.66 1488.95 1271.92 C 1495.34 1256.09 1500.3 1239.82 1505.43 1223.56 C 1462.33 1284.09 1406.24 1315.07 1350.46 1361.05 C 1382.27 1365.12 1411.64 1374.26 1441.53 1356.98 C 1449.2 1352.54 1455.97 1346.45 1463.36 1341.53 C 1471.9 1335.84 1482.51 1327.12 1492.3 1324.19 C 1499.64 1322 1505.84 1326.23 1512.17 1329.46 C 1528.84 1318.11 1547.38 1308.74 1565.13 1299.19 C 1583.56 1289.26 1601.92 1278.96 1620.7 1269.72 C 1641.89 1259.3 1679.95 1245.38 1696.2 1230.26 C 1733.41 1195.63 1776.86 1058.88 1787.19 1008.26 A 1213.42 1213.42 0 0 0 1799.12 939.683 C 1800.91 926.719 1801.32 913.415 1804 900.594 C 1804.7 897.243 1805.43 893.458 1808.11 891.126 L 1810.05 891.469 C 1813.46 896.37 1813.14 902.344 1812.88 908.039 L 1815.62 905.964 C 1816.44 902.237 1816.88 898.139 1819.35 895.116 L 1821.49 895.064 C 1824.75 898.496 1824.18 903.787 1824.07 908.206 C 1823.72 922.716 1822.8 937.422 1822.01 951.927 C 1852.26 930.858 1879.12 910.462 1901.12 880.259 C 1909.91 868.186 1916.93 854.276 1926.35 842.809 C 1927.8 841.043 1927.53 840.992 1929.82 840.293 C 1931.42 842.804 1930.59 844.945 1930.01 847.815 C 1921.62 889.721 1890.03 933.759 1858.32 961.537 C 1848.25 970.353 1836.91 977.386 1826.63 985.847 C 1818.29 1019.44 1815.62 1054.57 1807.86 1088.42 C 1803.84 1105.97 1799.16 1123.6 1794.12 1140.89 C 1789.38 1157.19 1784.02 1173.08 1781.29 1189.91 C 1816.18 1168.46 1853.69 1152.61 1889.32 1132.54 C 1896.86 1137.58 1903.57 1141.73 1912.45 1144.07 C 1921.26 1146.39 1955.12 1145.77 1958.11 1152.95 C 1956.48 1156.56 1953.04 1158.56 1949.74 1160.51 C 1937.9 1167.51 1924.96 1172.47 1913.06 1179.38 L 1690.78 1308.64 A 2038.6 2038.6 0 0 0 1604.4 1360.81 C 1591.88 1368.76 1577.78 1376.68 1566.57 1386.38 C 1564.56 1396.31 1562.93 1410.11 1553.73 1416.28 C 1552.03 1417.42 1550.12 1418.23 1548.21 1418.95 C 1542.68 1430.15 1534.43 1435.22 1526.13 1443.88 C 1514.91 1455.59 1507.01 1468.76 1490.6 1474.07 C 1483.65 1476.32 1474.08 1476.71 1467.5 1473.05 C 1465.51 1471.94 1463.64 1470.57 1461.8 1469.24 C 1423.13 1492.58 1385.01 1519.83 1348.7 1546.73 C 1348.32 1554.53 1346.91 1564.14 1340.78 1569.62 C 1338.65 1571.52 1335.85 1572.6 1333.23 1573.63 C 1318.85 1580.9 1326.57 1602 1299.74 1601.26 C 1292.79 1616.11 1281.13 1627.58 1265.54 1633.15 C 1256.59 1636.35 1244.92 1638.19 1236.13 1633.68 C 1233.41 1632.28 1230.82 1630.37 1228.37 1628.55 C 1201.98 1646.81 1176.92 1667.99 1151.77 1687.94 A 2331.18 2331.18 0 0 0 893.653 1923.32 C 870.469 1947.59 848.408 1972.53 826.493 1997.93 C 812.36 2014.31 797.98 2030.6 785.104 2048 L 761.005 2048 L 627.568 2048 L 605.726 2048 L 422.138 2048 L 405.089 2048 L 316.328 2048 L 297.149 2048 L 293.655 2048 L 272.788 2048 L 248.697 2048 L 237.928 2048 L 232.728 2048 C 241.553 2038.66 249.506 2028.17 257.916 2018.43 C 281.054 1991.62 303.78 1964.78 325.981 1937.18 C 323.282 1935.6 322.89 1935.5 321.575 1932.71 C 325.807 1927.45 329.873 1922.26 334.953 1917.78 A 1736.79 1736.79 0 0 0 305.616 1530.53 C 302.603 1513.98 299.742 1485.5 292.182 1471.38 C 287.919 1463.42 281.311 1456.4 275.335 1449.68 A 435.678 435.678 0 0 0 177.678 1368.41 A 521.272 521.272 0 0 0 129.132 1341.54 C 117.544 1335.95 105.059 1331.04 93.9526 1324.62 C 91.4082 1323.15 89.5915 1321.53 88.0527 1319.04 L 88.7068 1317.65 C 89.964 1317.23 89.9718 1317.18 91.4676 1316.91 C 101.163 1315.15 112.972 1321.56 121.89 1324.73 C 175.545 1343.82 237.819 1372.53 283.104 1407.11 C 278.665 1386.27 275.042 1365.26 270.578 1344.43 C 260.498 1297.39 249.556 1250.44 238.703 1203.58 C 233.226 1179.94 225.51 1156.71 220.436 1133.02 C 217.991 1121.6 223.773 1113.18 230.256 1104.02 C 231.794 1101.85 232.608 1100.92 235.22 1100.41 C 244.109 1107.54 252.595 1148.45 255.525 1160.43 C 285.633 1100.18 286.501 1023.05 281.775 957.185 C 280.888 944.825 275.873 916.872 278.797 906.489 L 280.476 905.613 C 281.892 907.478 282.451 909.194 283.113 911.412 C 288.455 929.319 290.78 949.163 293.345 967.642 C 302.1 1030.73 305.189 1093.81 292.371 1156.54 C 288.523 1175.38 283.508 1194.51 274.108 1211.4 C 280.084 1227.2 284.125 1244.16 289.241 1260.32 C 311.939 1331.99 329.707 1404.29 346.894 1477.42 C 353.947 1460.39 361.71 1443.65 368.518 1426.52 A 1150.33 1150.33 0 0 0 398.291 1340.47 C 403.056 1324.75 407.963 1308.91 411.843 1292.95 C 414.149 1283.47 414.991 1272.2 418.57 1263.17 C 419.312 1261.3 419.353 1260.99 421.231 1260.14 C 422.316 1261.14 422.597 1261.06 422.958 1262.22 C 425.192 1269.44 421.759 1284.26 420.69 1292.08 C 411.914 1356.23 396.836 1418.13 379.44 1480.42 C 373.49 1501.72 368.507 1524.94 358.963 1544.92 C 366.756 1569.24 371.736 1608.32 376.226 1634.2 C 387.447 1698.88 400.074 1765.55 404.23 1831.09 C 416.615 1811.51 432.942 1793.5 447.492 1775.42 C 479.418 1735.76 511.949 1695.84 546.692 1658.61 C 529.142 1668.94 448.996 1716.91 431.949 1711.29 C 429.579 1710.51 428.437 1709.02 427.886 1706.62 C 421.327 1678.06 553.836 1538.45 576.802 1511.32 C 593.573 1491.5 609.047 1470.76 625.054 1450.34 C 638.662 1432.98 654.833 1414.71 665.507 1395.38 C 671.039 1385.36 669.642 1376.39 672.519 1365.95 C 675.921 1353.61 681.586 1341.82 686.858 1330.2 C 704.295 1291.76 723.354 1254 741.935 1216.11 C 753.702 1192.12 765.849 1168.17 775.685 1143.3 C 811.831 1051.9 834.83 956.824 883.356 870.45 C 868.239 882.253 850.763 895.836 839.643 911.628 C 832.308 922.044 826.597 933.54 819.245 944.004 C 824.316 928.34 832.001 913.326 839.017 898.46 C 862.141 849.462 888.034 803.214 922.401 761.012 C 938.107 741.726 956.05 724.636 972.157 705.77 C 954.386 718.557 935.897 730.888 919.908 745.894 C 906.51 758.469 884.71 784.412 871.053 793.434 C 880.161 782.381 888.159 770.427 896.926 759.1 C 911.934 739.709 928.06 720.642 944.363 702.334 C 988.669 652.577 1037.63 607.02 1080.9 556.36 C 1118.87 511.91 1150.47 463.817 1181.14 414.221 C 1165.79 430.014 1149.25 443.975 1132.73 458.493 C 1146.82 432.396 1168.61 407.09 1188.5 385.262 C 1187.21 382.564 1185.4 380.241 1183.65 377.832 z"/>
<path transform="translate(0,0)" fill="rgb(241,236,203)" d="M 1302.64 1473.92 C 1304.27 1473.68 1305.24 1473.91 1306.83 1474.23 C 1309.04 1477.16 1311.45 1479.45 1312.98 1482.84 L 1312.09 1483.37 L 1307.24 1481.45 C 1302.02 1479.74 1296.65 1479.91 1291.21 1479.77 L 1302.64 1473.92 z"/>
<path transform="translate(0,0)" fill="rgb(241,236,203)" d="M 1298.8 1550.54 C 1299.88 1551.25 1300.58 1551.47 1301.16 1552.72 C 1303.91 1558.77 1302.22 1568.24 1300.49 1574.39 L 1298.92 1575.23 C 1297.77 1571.72 1296.69 1568.17 1295.34 1564.73 C 1294.03 1561.41 1293.43 1559.22 1293.35 1555.63 C 1294.78 1552.51 1295.92 1552.26 1298.8 1550.54 z"/>
<path transform="translate(0,0)" fill="rgb(241,236,203)" d="M 1273.87 1596.04 L 1274.19 1596.45 C 1274.32 1601.33 1269.95 1606.04 1266.76 1609.5 C 1260.29 1616.53 1253.04 1621.8 1243.37 1622.29 L 1242.4 1620.18 C 1246.46 1614.57 1266.59 1602.9 1273.87 1596.04 z"/>
<path transform="translate(0,0)" fill="rgb(218,212,185)" d="M 1495.6 1330.56 C 1499.06 1331.36 1502.06 1332.15 1505.24 1333.74 C 1513.51 1336.63 1521.81 1339.01 1530.27 1341.28 L 1525.29 1342.62 L 1529.16 1344 L 1527.48 1344.51 C 1520.47 1343.46 1508.81 1341.28 1503.31 1336.69 C 1499.99 1338.06 1494.66 1340.36 1491.05 1340.41 C 1488.17 1340.45 1485.66 1340.11 1483.6 1338.03 L 1484.33 1335.91 C 1487.83 1332.92 1491.31 1331.92 1495.6 1330.56 z"/>
<path transform="translate(0,0)" fill="rgb(134,201,175)" d="M 553.219 1662.77 C 560.422 1654.47 574.731 1637.05 585.473 1634.51 A 1062.41 1062.41 0 0 1 556.395 1666.02 C 552.623 1670.51 548.906 1675.01 544.742 1679.15 C 541.554 1679.41 540.479 1680.26 538.074 1682.11 C 537.085 1682.87 536.302 1683.26 535.114 1683.62 C 540.862 1676.4 547.032 1669.61 553.219 1662.77 z"/>
<path transform="translate(0,0)" fill="rgb(218,212,185)" d="M 1137.91 1455.71 C 1159.9 1459.97 1188.54 1472.14 1206.87 1485.35 C 1207.91 1486.8 1208.95 1488.24 1210.07 1489.63 L 1207.86 1490.77 C 1184.24 1480.07 1161.31 1467.03 1137.91 1455.71 z"/>
<path transform="translate(0,0)" fill="rgb(241,236,203)" d="M 1530.27 1341.28 L 1538.17 1344.78 C 1543.93 1358.57 1555.79 1376.74 1549.63 1391.99 C 1548.56 1394.65 1546.85 1396.98 1545.32 1399.39 C 1544.81 1400.18 1544.33 1400.99 1543.83 1401.79 C 1546.19 1383.65 1545.11 1364.99 1533.6 1349.74 C 1531.97 1347.58 1529.7 1346 1527.48 1344.51 L 1529.16 1344 L 1525.29 1342.62 L 1530.27 1341.28 z"/>
<path transform="translate(0,0)" fill="rgb(241,236,203)" d="M 1206.87 1485.35 C 1215.63 1490.12 1224.21 1495.92 1232.24 1501.84 C 1226.81 1506.38 1221.28 1510.6 1215.21 1514.26 C 1207.2 1508.08 1199.12 1502.28 1190.71 1496.67 L 1191.65 1495.87 C 1195.54 1496.93 1197.38 1500.58 1201.12 1501.19 C 1203.34 1499.44 1203.73 1498.26 1204.65 1495.69 C 1202.9 1492.62 1197.27 1490.93 1193.99 1489.41 L 1193.65 1488.14 C 1201.8 1491.01 1209.28 1494.83 1217.82 1496.56 C 1214.68 1494.75 1210.66 1493 1207.86 1490.77 L 1210.07 1489.63 C 1208.95 1488.24 1207.91 1486.8 1206.87 1485.35 z"/>
<path transform="translate(0,0)" fill="rgb(241,236,203)" d="M 1226.2 1061.13 C 1235.94 1057.51 1245.8 1047.58 1253.49 1045.43 C 1241.75 1070.05 1223.95 1094.42 1205.42 1114.45 C 1212.2 1096.69 1218.5 1078.5 1226.2 1061.13 z"/>
<path transform="translate(0,0)" fill="rgb(197,200,207)" d="M 1119.47 1461.13 L 1130.98 1454.91 C 1151.39 1466.82 1172.96 1476.71 1193.65 1488.14 L 1193.99 1489.41 C 1197.27 1490.93 1202.9 1492.62 1204.65 1495.69 C 1203.73 1498.26 1203.34 1499.44 1201.12 1501.19 C 1197.38 1500.58 1195.54 1496.93 1191.65 1495.87 L 1190.71 1496.67 C 1180.42 1491.52 1170.44 1485.68 1160.16 1480.49 C 1146.74 1473.73 1132.98 1467.67 1119.47 1461.13 z"/>
<path transform="translate(0,0)" fill="rgb(149,141,104)" d="M 199.024 1368.9 C 209.727 1370.97 247.469 1394.45 258.537 1402.06 C 281.562 1417.89 286.438 1419.64 291.654 1447.59 C 282.997 1441.67 270.854 1425.34 262.099 1417.07 C 242.616 1398.67 221.295 1383.67 199.024 1368.9 z"/>
<path transform="translate(0,0)" fill="rgb(134,201,175)" d="M 986.344 1358.07 C 986.725 1362.06 981.939 1366.31 982.023 1371.14 C 982.993 1372.41 983.781 1373.3 985.074 1374.28 C 985.439 1374.56 985.819 1374.81 986.191 1375.08 C 970.213 1393.55 908.316 1423.87 885.431 1437.32 L 882.334 1438.79 C 882.592 1437.67 882.314 1438.17 883.354 1437.3 C 901.54 1422.07 922.659 1410.08 941.879 1396.18 C 957.832 1384.63 971.962 1371.44 986.344 1358.07 z"/>
<path transform="translate(0,0)" fill="url(#Gradient3)" d="M 535.114 1683.62 C 536.302 1683.26 537.085 1682.87 538.074 1682.11 C 540.479 1680.26 541.554 1679.41 544.742 1679.15 C 512.683 1720.35 477.948 1760.1 444.002 1799.77 C 431.692 1814.15 418.334 1828.15 406.665 1843.01 L 404.492 1841.63 L 466.685 1765.29 C 488.747 1737.68 510.171 1708.73 535.114 1683.62 z"/>
<path transform="translate(0,0)" fill="rgb(241,236,203)" d="M 1154.23 1115.9 C 1168.3 1110.28 1180.89 1101.67 1194.82 1096.2 C 1182.04 1116.95 1146.27 1156.4 1124.11 1166.81 C 1134.17 1150.9 1143.74 1130.57 1154.23 1115.9 z"/>
<path transform="translate(0,0)" fill="rgb(241,236,203)" d="M 815.532 1195.33 C 829.14 1189.38 840.772 1183.87 855.89 1183.57 C 840.744 1202.72 816.499 1231.52 792.176 1238.3 L 793.821 1230.85 C 798.809 1218 807.433 1206.39 815.532 1195.33 z"/>
<path transform="translate(0,0)" fill="rgb(241,236,203)" d="M 1489.53 1347.42 C 1498.64 1346.92 1506.82 1347.55 1515.71 1349.62 C 1516.22 1350.04 1516.73 1350.45 1517.22 1350.88 C 1528.77 1360.87 1535.6 1385.26 1536.34 1400.09 C 1536.95 1412.19 1532.28 1420.23 1524.65 1429 C 1527.98 1418.18 1528.85 1410 1527.08 1398.77 C 1524.29 1387.25 1524.63 1370.94 1514.7 1363.13 C 1513.15 1362.72 1511.94 1362.49 1510.34 1362.75 C 1501.12 1364.27 1491.04 1359.95 1481.72 1359.26 C 1470.47 1358.42 1458.91 1361.31 1447.93 1363.36 C 1461.87 1353.14 1471.94 1348.6 1489.53 1347.42 z"/>
<path transform="translate(0,0)" fill="rgb(218,212,185)" d="M 1447.12 1371.22 A 133.474 133.474 0 0 1 1451.89 1370.99 C 1467.48 1370.52 1485.11 1371.65 1496.71 1383.15 C 1506.89 1393.24 1513.03 1409.01 1512.71 1423.32 C 1512.36 1438.94 1504.46 1451.7 1493.31 1461.94 C 1498.86 1453.4 1502.86 1445.49 1505.76 1435.71 C 1506.59 1430.94 1507.04 1426.92 1506.59 1422.06 C 1505.73 1412.89 1503.51 1403 1496.78 1396.24 C 1477.06 1376.45 1408.94 1385.79 1405.17 1382.68 C 1419.65 1381.45 1433.08 1374.88 1447.12 1371.22 z"/>
<path transform="translate(0,0)" fill="rgb(241,236,203)" d="M 1080.95 1143.7 C 1092.45 1142.4 1122.27 1127.08 1129.75 1129.36 C 1109.39 1154.58 1078.99 1179.48 1048.19 1190.51 C 1056.07 1178.81 1072.28 1152.25 1080.95 1143.7 z"/>
<path transform="translate(0,0)" fill="rgb(241,236,203)" d="M 927.037 1181.57 C 946.969 1180.8 963.019 1170.65 982.026 1167.34 C 976.22 1175.1 970.587 1183 963.477 1189.63 C 949.184 1202.97 920.738 1217.53 901.697 1222.83 C 905.04 1215.02 908.176 1206.83 913.024 1199.81 C 917.388 1193.49 922.726 1187.88 927.037 1181.57 z"/>
<path transform="translate(0,0)" fill="rgb(149,141,104)" d="M 404.484 1348.74 C 405.714 1359.35 364.472 1513.06 357.234 1524.88 L 356.171 1523.83 C 354.261 1514.19 350.838 1502.08 352.345 1492.33 C 355.741 1470.35 369.334 1450.39 377.01 1429.73 C 386.924 1403.04 394.957 1375.59 404.484 1348.74 z"/>
<path transform="translate(0,0)" fill="rgb(241,236,203)" d="M 861.958 1190.2 C 878.779 1190.2 911.158 1172.97 917.94 1175.21 C 895.924 1203.37 868.84 1223.18 834.443 1234.24 C 841.931 1218.63 851.657 1204.1 861.958 1190.2 z"/>
<path transform="translate(0,0)" fill="url(#Gradient4)" d="M 1221.95 1526.25 C 1235.47 1525.85 1251.86 1525.42 1263.95 1532.62 C 1275.62 1539.57 1284.87 1561.48 1288.39 1574.17 C 1292.53 1589.06 1287.02 1601.09 1279.81 1613.79 C 1284.07 1596.15 1284.42 1581.04 1276.36 1564.31 C 1275.78 1563.46 1275.18 1562.62 1274.56 1561.8 C 1262.07 1545.23 1247.32 1542.88 1228.03 1543.57 C 1219.88 1543.85 1211.8 1544.55 1203.99 1547.06 C 1194.41 1550.13 1184.21 1557.93 1173.94 1556.56 L 1172.74 1554.99 C 1173.1 1553.62 1173.05 1553.54 1173.84 1552.09 C 1175.49 1549.06 1178.87 1546.24 1181.45 1543.95 C 1193.84 1532.96 1205.79 1529.25 1221.95 1526.25 z"/>
<path transform="translate(0,0)" fill="rgb(241,236,203)" d="M 1003.31 1160.49 C 1018.97 1158.81 1055.59 1136.43 1067.77 1140.16 C 1061.84 1148.35 1055.99 1156.4 1048.76 1163.53 C 1027.42 1184.55 995.149 1200.19 966.546 1208.24 C 972.541 1193.04 992.72 1173.71 1003.31 1160.49 z"/>
<path transform="translate(0,0)" fill="url(#Gradient5)" d="M 1278 1485.37 C 1296.58 1488.38 1316.31 1490.03 1328.3 1506.69 C 1337.21 1519.07 1341.52 1540.46 1338.58 1555.44 C 1338.07 1558.07 1336.99 1560.58 1335.94 1563.04 L 1334.53 1562.73 C 1332.85 1559.87 1333.94 1549.2 1333.8 1545.32 C 1332.63 1542.98 1331.38 1542.54 1329.15 1541.38 C 1328.32 1541.89 1327.5 1542.43 1326.64 1542.89 C 1326.09 1543.18 1324.04 1543.93 1323.5 1543.5 C 1316.93 1538.24 1311.86 1518.5 1296.93 1514.4 C 1294.51 1513.74 1294.75 1514.18 1292.73 1515.34 L 1289.56 1513.85 C 1278.13 1508.47 1266.66 1506.25 1254.43 1503.62 C 1252.58 1503.11 1250.77 1502.52 1248.94 1501.94 L 1252.43 1498.48 C 1259.77 1492.52 1269.29 1488.86 1278 1485.37 z"/>
<path transform="translate(0,0)" fill="rgb(78,56,78)" d="M 1303.11 1503.75 C 1312.16 1505.05 1318.85 1507.37 1325.51 1513.84 C 1328.55 1524.21 1332.06 1534.64 1333.8 1545.32 C 1332.63 1542.98 1331.38 1542.54 1329.15 1541.38 C 1328.78 1539.2 1328.27 1537.07 1327.48 1534.99 C 1323.11 1523.47 1316.65 1511.17 1304.97 1505.89 C 1303.45 1505.21 1304.28 1505.85 1303.11 1503.75 z"/>
<path transform="translate(0,0)" fill="url(#Gradient6)" d="M 1252.43 1498.48 C 1268.33 1499.32 1288.11 1498.43 1303.11 1503.75 C 1304.28 1505.85 1303.45 1505.21 1304.97 1505.89 C 1316.65 1511.17 1323.11 1523.47 1327.48 1534.99 C 1328.27 1537.07 1328.78 1539.2 1329.15 1541.38 C 1328.32 1541.89 1327.5 1542.43 1326.64 1542.89 C 1326.09 1543.18 1324.04 1543.93 1323.5 1543.5 C 1316.93 1538.24 1311.86 1518.5 1296.93 1514.4 C 1294.51 1513.74 1294.75 1514.18 1292.73 1515.34 L 1289.56 1513.85 C 1278.13 1508.47 1266.66 1506.25 1254.43 1503.62 C 1252.58 1503.11 1250.77 1502.52 1248.94 1501.94 L 1252.43 1498.48 z"/>
<path transform="translate(0,0)" fill="url(#Gradient7)" d="M 1254.43 1503.62 C 1266.66 1506.25 1278.13 1508.47 1289.56 1513.85 L 1292.73 1515.34 C 1294.75 1514.18 1294.51 1513.74 1296.93 1514.4 C 1311.86 1518.5 1316.93 1538.24 1323.5 1543.5 C 1324.04 1543.93 1326.09 1543.18 1326.64 1542.89 C 1327.5 1542.43 1328.32 1541.89 1329.15 1541.38 C 1331.38 1542.54 1332.63 1542.98 1333.8 1545.32 C 1333.94 1549.2 1332.85 1559.87 1334.53 1562.73 L 1335.94 1563.04 L 1337.37 1563.39 C 1336.15 1568.19 1331.27 1567.96 1333.23 1573.63 C 1318.85 1580.9 1326.57 1602 1299.74 1601.26 C 1299.64 1600.12 1299.88 1599.16 1300.08 1598.05 C 1302.13 1596.09 1304.17 1595.28 1306.74 1594.24 L 1307.83 1593.81 L 1308.57 1591.81 C 1311.02 1582.81 1314.4 1575.97 1314.44 1566.37 C 1314.48 1556.21 1312.21 1545.1 1304.71 1537.72 C 1287.71 1520.99 1245.89 1520.03 1223.16 1519.85 C 1232.7 1512.46 1241.74 1503.85 1254.43 1503.62 z"/>
<path transform="translate(0,0)" fill="rgb(80,52,81)" d="M 1292.73 1515.34 C 1294.75 1514.18 1294.51 1513.74 1296.93 1514.4 C 1311.86 1518.5 1316.93 1538.24 1323.5 1543.5 C 1324.04 1543.93 1326.09 1543.18 1326.64 1542.89 C 1327.5 1542.43 1328.32 1541.89 1329.15 1541.38 C 1331.38 1542.54 1332.63 1542.98 1333.8 1545.32 C 1333.94 1549.2 1332.85 1559.87 1334.53 1562.73 L 1335.94 1563.04 L 1337.37 1563.39 C 1336.15 1568.19 1331.27 1567.96 1333.23 1573.63 C 1318.85 1580.9 1326.57 1602 1299.74 1601.26 C 1299.64 1600.12 1299.88 1599.16 1300.08 1598.05 C 1302.13 1596.09 1304.17 1595.28 1306.74 1594.24 L 1307.83 1593.81 L 1308.57 1591.81 C 1309.81 1590.6 1310.92 1589.41 1311.95 1588.01 C 1319.56 1577.56 1322.44 1561.87 1319.96 1549.35 C 1316.81 1533.46 1305.54 1523.71 1292.73 1515.34 z"/>
<path transform="translate(0,0)" fill="rgb(134,201,175)" d="M 781.94 1504.99 C 781.938 1505.35 781.972 1505.72 781.934 1506.08 C 780.047 1523.83 717.544 1602.06 702.747 1618.7 C 688.931 1634.23 673.948 1649.9 658.006 1663.23 C 657.89 1662.68 657.834 1662.61 657.985 1661.92 C 658.945 1657.55 677.851 1633.79 681.726 1628.07 C 695.586 1607.61 707.263 1585.38 720.201 1564.28 C 725.859 1555.06 731.472 1545.18 738.823 1537.18 C 747.835 1527.37 770.363 1513.58 781.94 1504.99 z"/>
<path transform="translate(0,0)" fill="rgb(149,141,104)" d="M 316.328 2048 C 344.614 2026.47 373.903 2004.16 400.778 1980.96 C 402.289 2003.17 404.98 2025.75 405.089 2048 L 316.328 2048 z"/>
<path transform="translate(0,0)" fill="rgb(134,201,175)" d="M 825.032 1163.38 C 826.158 1161.71 827.287 1159.85 828.655 1158.36 C 830.531 1156.33 832.167 1156.19 834.784 1155.92 C 832.415 1161.88 830.152 1167.81 826.549 1173.16 C 823.984 1180.92 819.011 1187.95 815.532 1195.33 C 807.433 1206.39 798.809 1218 793.821 1230.85 L 792.176 1238.3 C 788.764 1239.79 787.128 1240.75 785.287 1244.08 L 781.938 1246.3 C 782.845 1247.12 783.049 1247.75 783.531 1248.86 C 778.567 1257.25 735.566 1283.37 724.022 1289.98 C 729.658 1281.62 733.785 1271.96 738.488 1263.05 C 745.88 1249.03 753.772 1235.29 761.156 1221.27 C 765.486 1213.06 769.418 1204.29 774.868 1196.76 L 774.763 1203.01 C 775.208 1204.44 775.899 1205.67 776.579 1207 C 779.164 1208.44 780.046 1209.17 783.11 1208.72 C 795.647 1206.88 817.472 1172.71 824.235 1162.85 L 825.032 1163.38 z"/>
<path transform="translate(0,0)" fill="rgb(67,46,67)" d="M 825.032 1163.38 C 826.158 1161.71 827.287 1159.85 828.655 1158.36 C 830.531 1156.33 832.167 1156.19 834.784 1155.92 C 832.415 1161.88 830.152 1167.81 826.549 1173.16 C 823.984 1180.92 819.011 1187.95 815.532 1195.33 C 807.433 1206.39 798.809 1218 793.821 1230.85 L 792.176 1238.3 C 788.764 1239.79 787.128 1240.75 785.287 1244.08 L 781.938 1246.3 C 781.686 1245.76 781.368 1245.26 781.183 1244.7 C 777.619 1234.01 809.626 1190.64 816.447 1179.97 C 819.467 1174.5 822.325 1169.01 825.032 1163.38 z"/>
<path transform="translate(0,0)" fill="rgb(80,52,81)" d="M 785.287 1244.08 C 784.405 1240.2 784.474 1236.95 786.219 1233.26 C 787.346 1230.87 788.599 1230.25 790.966 1229.41 L 793.821 1230.85 L 792.176 1238.3 C 788.764 1239.79 787.128 1240.75 785.287 1244.08 z"/>
<path transform="translate(0,0)" fill="rgb(110,139,168)" d="M 1304.55 962.435 C 1330.72 955.766 1352.18 944.187 1373.48 927.691 C 1351.95 972.983 1322.16 1011.1 1292.61 1051.25 C 1265.27 1088.39 1237.39 1126.74 1206.22 1160.78 C 1206.25 1160.57 1206.28 1160.37 1206.3 1160.16 C 1207.47 1150.72 1233.01 1128.31 1239.3 1116.82 L 1238 1115.18 C 1228.39 1117.8 1213.32 1150.58 1202.78 1156.02 C 1202.24 1156.29 1201.69 1156.51 1201.14 1156.76 C 1212.16 1141.61 1224.44 1127.38 1235.55 1112.27 C 1258.01 1081.7 1279.22 1045.82 1291.83 1010.05 C 1297.31 994.507 1300.86 978.465 1304.55 962.435 z"/>
<path transform="translate(0,0)" fill="rgb(134,201,175)" d="M 897.655 1213.97 C 894.892 1219.01 889.993 1225.94 889.481 1231.7 C 889.277 1233.98 889.674 1234.26 891.019 1235.96 C 899.154 1238.02 906.088 1235.02 913.967 1233.31 C 917.569 1234.75 917.705 1234.74 919.283 1238.16 C 898.349 1253.66 867.957 1253.07 844.894 1264.83 C 820.47 1271.95 785.481 1305.95 763.977 1322.18 C 752.495 1330.84 740.524 1338.81 728.854 1347.22 C 715.715 1356.68 702.824 1366.65 689.218 1375.43 C 698.548 1350.64 713.136 1326.71 727.793 1304.71 C 731.607 1298.99 735.61 1293.3 740.758 1288.68 C 750.103 1280.3 761.694 1274.22 771.569 1266.39 C 776.712 1262.31 786.038 1252.57 791.51 1249.81 C 792.603 1249.25 795.237 1249.05 796.504 1248.82 C 807.725 1246.74 818.023 1237.21 826.326 1229.84 C 825.263 1233.19 823.262 1238.32 825.017 1241.66 C 826.248 1244 828.056 1245.22 830.576 1245.8 C 845.941 1249.33 884.601 1222.41 897.655 1213.97 z"/>
<path transform="translate(0,0)" fill="rgb(241,236,203)" d="M 919.283 1238.16 C 921.233 1237.6 922.725 1237.18 924.768 1237.08 C 902.676 1262.89 876.168 1283.82 849.808 1305.07 C 812.585 1335.09 774.249 1365.86 733.549 1391.04 C 718.569 1400.31 702.802 1408.46 687.194 1416.61 C 689.034 1412.08 693.879 1403.55 693.762 1398.95 C 691.27 1399.81 690.573 1401.59 689.237 1403.79 L 689.035 1396.38 C 688.035 1395.43 687.27 1394.93 686.094 1394.26 L 685.57 1391.98 C 690.168 1385.77 726.475 1363.14 736.262 1355.57 C 759.107 1337.91 781.62 1319.21 803.467 1300.32 C 817.159 1288.47 830.442 1275.72 844.894 1264.83 C 867.957 1253.07 898.349 1253.66 919.283 1238.16 z"/>
<path transform="translate(0,0)" fill="rgb(149,141,104)" d="M 1445.34 1406.15 C 1467.86 1404.93 1478.28 1412.84 1496.59 1424.46 C 1493.52 1429.34 1490 1433.22 1485.53 1436.85 C 1472.41 1447.48 1457.2 1456.04 1443.04 1465.25 A 4990.91 4990.91 0 0 0 1367.78 1515.08 C 1360.95 1519.56 1354.07 1523.89 1347.88 1529.24 C 1345.38 1509.67 1341.33 1494.64 1328.5 1479.37 C 1338.55 1474.32 1348.12 1466.64 1357.44 1460.3 C 1384.35 1442 1415.63 1418.59 1445.34 1406.15 z"/>
<path transform="translate(0,0)" fill="rgb(241,236,203)" d="M 1304.62 1400.4 C 1332.57 1400.17 1372.09 1401.57 1396.32 1415.52 C 1387.58 1422.87 1377.05 1428.78 1367.47 1435 L 1318.29 1467.14 C 1314.58 1465.86 1310.8 1464.63 1306.86 1464.36 C 1296.51 1463.64 1289.1 1470.97 1281.93 1477.29 C 1269.08 1478.75 1259.37 1484.48 1248.32 1490.59 L 1238.9 1495.92 C 1215 1479.82 1190.18 1465.37 1165.28 1450.9 C 1173.84 1448.17 1182.2 1445.26 1190.36 1441.49 C 1200.58 1436.75 1211.63 1430.07 1222.49 1427.32 A 152.266 152.266 0 0 1 1227.05 1431.67 C 1248.52 1433.75 1284.42 1403.7 1304.62 1400.4 z"/>
<path transform="translate(0,0)" fill="rgb(110,139,168)" d="M 950.105 1209.68 C 949.986 1215.12 948.521 1225.15 952.007 1229.48 C 963.568 1232.03 999.119 1210.72 1010.32 1203.56 C 1020.31 1197.18 1029.9 1190.04 1039.64 1183.29 C 1024.03 1206.54 977.995 1240.97 955.364 1259.74 C 931.072 1279.87 907.524 1301.02 882.885 1320.71 A 2510.13 2510.13 0 0 1 704.915 1450.31 C 671.827 1472.55 626.018 1503.46 588.884 1517.29 A 952.512 952.512 0 0 0 636.296 1463.52 C 649.248 1447.42 661.239 1430.38 675.116 1415.06 C 678.323 1420.99 680 1426.07 681.086 1432.73 C 693.076 1428.86 703.752 1423.26 714.458 1416.66 C 758.412 1389.53 799.065 1355.84 839.357 1323.63 C 862.688 1304.98 901.971 1274.65 920.413 1252.58 C 923.733 1248.61 926.507 1243.99 928.859 1239.38 C 929.95 1237.24 930.73 1235.57 930.993 1233.15 L 929.758 1232.65 C 927.839 1234.08 926.273 1235.18 924.768 1237.08 C 922.725 1237.18 921.233 1237.6 919.283 1238.16 C 917.705 1234.74 917.569 1234.75 913.967 1233.31 C 918.945 1229.21 924.947 1226.73 930.504 1223.54 C 937.533 1219.49 943.87 1214.85 950.105 1209.68 z"/>
<path transform="translate(0,0)" fill="rgb(110,139,168)" d="M 1188.73 1127.08 C 1186.5 1136.64 1168.17 1155.61 1161.27 1163.6 C 1147.93 1179.05 1134.2 1194.54 1119.42 1208.65 C 1103.98 1223.39 1087.46 1236.97 1071.67 1251.34 C 1030.41 1288.86 990.794 1324.25 946.644 1358.52 C 914.398 1383.56 880.306 1406.39 846.862 1429.79 L 717.716 1520.44 A 6408.06 6408.06 0 0 0 636.011 1576.9 C 603.306 1600.33 571.182 1624.91 537.363 1646.73 C 523.397 1655.74 455.728 1698.02 443.798 1695.45 L 444.22 1693.5 C 460.295 1669.8 478.973 1647.51 498.091 1626.22 C 499.507 1627.86 500.935 1629.58 502.548 1631.04 C 505.017 1633.26 508.574 1633.82 511.778 1633.66 C 538.117 1632.34 665.05 1537.76 695.666 1516.32 C 716.478 1501.75 738.056 1488.18 758.507 1473.12 C 794.289 1446.77 828.846 1418.59 864.159 1391.6 C 902.208 1362.53 940.98 1334.41 978.444 1304.57 C 1012.78 1277.22 1044.83 1247.35 1078.72 1219.56 C 1101.36 1201 1125.93 1184.94 1148.38 1166.29 C 1162.83 1154.28 1175.75 1140.63 1188.73 1127.08 z"/>
<path transform="translate(0,0)" fill="rgb(134,201,175)" d="M 674.578 1575.07 C 692.708 1563.8 709.815 1550.57 727.505 1538.58 A 2457.22 2457.22 0 0 1 599.757 1710.4 C 580.922 1733.46 560.836 1755.46 541.905 1778.43 C 523.41 1800.87 505.42 1823.73 486.714 1846 A 9200.14 9200.14 0 0 1 419.392 1923.77 C 406.702 1938.46 394.682 1953.85 381.649 1968.23 C 355.633 1996.94 322.764 2018.79 297.149 2048 L 293.655 2048 L 272.788 2048 A 711.603 711.603 0 0 0 306.438 2009.25 C 312.06 2004.34 317.139 1996.78 321.896 1990.96 A 3233.7 3233.7 0 0 0 362.41 1940.31 C 369.948 1930.79 377.864 1918.65 387.11 1910.85 C 397.26 1906.78 417.145 1880.37 425.351 1870.76 C 427.923 1867.75 431.384 1862.37 434.828 1860.48 C 436.822 1859.38 438.888 1858.36 440.921 1857.33 C 447.554 1850.57 453.451 1842.42 459.525 1835.09 C 469.767 1822.73 480.479 1810.5 489.879 1797.49 L 491.252 1797.76 C 497.627 1794.37 505.394 1781.43 510.29 1775.65 C 521.277 1762.69 533.674 1751 544.514 1737.9 C 546.047 1736.05 548.261 1732.3 550.098 1731.07 C 550.846 1730.57 551.8 1730.48 552.651 1730.18 C 561.792 1719.96 569.803 1707.57 578.102 1696.55 C 599.879 1667.64 621.636 1638.97 644.453 1610.84 C 654.184 1598.85 663.542 1585.87 674.578 1575.07 z"/>
<path transform="translate(0,0)" fill="rgb(67,46,67)" d="M 491.252 1797.76 C 497.627 1794.37 505.394 1781.43 510.29 1775.65 C 521.277 1762.69 533.674 1751 544.514 1737.9 C 546.047 1736.05 548.261 1732.3 550.098 1731.07 C 550.846 1730.57 551.8 1730.48 552.651 1730.18 C 528.206 1764.65 501.695 1797.81 475.203 1830.71 C 463.273 1845.52 451.823 1861.3 439.165 1875.46 A 7356.84 7356.84 0 0 0 375.505 1953.39 C 360.652 1971.77 346.164 1990.46 330.26 2007.96 C 330.144 1999.85 343.572 1986.05 348.394 1979.8 C 354.339 1972.09 358.433 1963.16 364.268 1955.39 C 370.187 1947.51 377.343 1940.36 383.802 1932.91 C 394.939 1920.06 405.834 1907.25 417.406 1894.78 C 421.23 1890.66 426.747 1885.97 429.119 1880.89 C 428.02 1880.06 427.584 1879.58 427.468 1878.1 C 426.967 1871.68 436.888 1863.7 440.314 1858.31 C 440.52 1857.99 440.719 1857.66 440.921 1857.33 C 447.554 1850.57 453.451 1842.42 459.525 1835.09 C 469.767 1822.73 480.479 1810.5 489.879 1797.49 L 491.252 1797.76 z"/>
<path transform="translate(0,0)" fill="rgb(99,76,105)" d="M 489.879 1797.49 L 491.252 1797.76 C 488.315 1807.12 462.665 1834.1 455.149 1844.07 C 447.982 1853.57 441.594 1863.64 434.602 1873.27 C 432.773 1875.8 430.867 1878.31 429.119 1880.89 C 428.02 1880.06 427.584 1879.58 427.468 1878.1 C 426.967 1871.68 436.888 1863.7 440.314 1858.31 C 440.52 1857.99 440.719 1857.66 440.921 1857.33 C 447.554 1850.57 453.451 1842.42 459.525 1835.09 C 469.767 1822.73 480.479 1810.5 489.879 1797.49 z"/>
<path transform="translate(0,0)" fill="rgb(80,52,81)" d="M 387.11 1910.85 C 397.26 1906.78 417.145 1880.37 425.351 1870.76 C 427.923 1867.75 431.384 1862.37 434.828 1860.48 C 436.822 1859.38 438.888 1858.36 440.921 1857.33 C 440.719 1857.66 440.52 1857.99 440.314 1858.31 C 436.888 1863.7 426.967 1871.68 427.468 1878.1 C 427.584 1879.58 428.02 1880.06 429.119 1880.89 C 426.747 1885.97 421.23 1890.66 417.406 1894.78 C 405.834 1907.25 394.939 1920.06 383.802 1932.91 C 377.343 1940.36 370.187 1947.51 364.268 1955.39 C 358.433 1963.16 354.339 1972.09 348.394 1979.8 C 343.572 1986.05 330.144 1999.85 330.26 2007.96 C 318.997 2022.21 306.301 2035 293.655 2048 L 272.788 2048 A 711.603 711.603 0 0 0 306.438 2009.25 C 312.06 2004.34 317.139 1996.78 321.896 1990.96 A 3233.7 3233.7 0 0 0 362.41 1940.31 C 369.948 1930.79 377.864 1918.65 387.11 1910.85 z"/>
<path transform="translate(0,0)" fill="rgb(149,141,104)" d="M 287.493 1100.15 C 289.85 1126.45 274.045 1182.95 265.74 1208.98 C 271.643 1222.13 275.793 1251.28 280.483 1267.78 A 3103.4 3103.4 0 0 1 339.616 1508.9 C 344.607 1533.58 347.639 1558.6 352.418 1583.32 C 360.829 1626.83 368.031 1670.34 374.929 1714.11 C 381.888 1758.26 388.827 1802.46 390.231 1847.21 C 378.021 1863.54 363.895 1878.6 351.197 1894.59 C 350.817 1871.47 351.016 1848.31 350.93 1825.18 C 348.517 1768.01 345.839 1710.52 339.294 1653.65 C 333.009 1599.03 323.255 1545.36 313.163 1491.35 A 3714.64 3714.64 0 0 0 226.28 1123.9 C 228.124 1119.46 230.593 1115.36 232.966 1111.2 C 239.76 1128.02 245.351 1166.7 254.89 1179.55 L 257.135 1179.72 C 270.123 1169.93 283.549 1116.94 287.493 1100.15 z"/>
<path transform="translate(0,0)" fill="rgb(134,201,175)" d="M 654.781 1588.57 C 660.038 1584.68 668.459 1576.04 674.578 1575.07 C 663.542 1585.87 654.184 1598.85 644.453 1610.84 C 621.636 1638.97 599.879 1667.64 578.102 1696.55 C 569.803 1707.57 561.792 1719.96 552.651 1730.18 C 551.8 1730.48 550.846 1730.57 550.098 1731.07 C 548.261 1732.3 546.047 1736.05 544.514 1737.9 C 533.674 1751 521.277 1762.69 510.29 1775.65 C 505.394 1781.43 497.627 1794.37 491.252 1797.76 L 489.879 1797.49 C 480.479 1810.5 469.767 1822.73 459.525 1835.09 C 453.451 1842.42 447.554 1850.57 440.921 1857.33 C 438.888 1858.36 436.822 1859.38 434.828 1860.48 C 431.384 1862.37 427.923 1867.75 425.351 1870.76 C 417.145 1880.37 397.26 1906.78 387.11 1910.85 C 377.864 1918.65 369.948 1930.79 362.41 1940.31 A 3233.7 3233.7 0 0 1 321.896 1990.96 C 317.139 1996.78 312.06 2004.34 306.438 2009.25 A 711.603 711.603 0 0 1 272.788 2048 L 248.697 2048 L 237.928 2048 L 232.728 2048 C 241.553 2038.66 249.506 2028.17 257.916 2018.43 C 281.054 1991.62 303.78 1964.78 325.981 1937.18 C 333.946 1931.45 371.437 1881.23 380.209 1870.16 C 387.968 1860.36 396.238 1851.01 404.492 1841.63 L 406.665 1843.01 C 418.334 1828.15 431.692 1814.15 444.002 1799.77 C 477.948 1760.1 512.683 1720.35 544.742 1679.15 C 548.906 1675.01 552.623 1670.51 556.395 1666.02 A 1062.41 1062.41 0 0 0 585.473 1634.51 C 588.906 1633.15 592.191 1631.7 595.866 1631.16 C 596.386 1630.66 596.915 1630.18 597.407 1629.66 C 606.131 1620.41 643.86 1591.81 654.781 1588.57 z"/>
<path transform="translate(0,0)" fill="rgb(67,46,67)" d="M 552.311 1714.88 L 553.126 1716.56 C 549.718 1721.69 545.358 1725.9 541.799 1730.88 C 532.81 1743.47 518.686 1769 504.931 1776.43 C 501.361 1781.8 492.318 1791.89 491.252 1797.76 L 489.879 1797.49 C 480.479 1810.5 469.767 1822.73 459.525 1835.09 C 453.451 1842.42 447.554 1850.57 440.921 1857.33 C 438.888 1858.36 436.822 1859.38 434.828 1860.48 C 431.384 1862.37 427.923 1867.75 425.351 1870.76 C 417.145 1880.37 397.26 1906.78 387.11 1910.85 C 396.597 1896.27 410.798 1882.8 422.03 1869.38 A 5015.53 5015.53 0 0 1 461.992 1821.74 C 468.489 1814.11 474.856 1805.66 482.105 1798.77 C 490.885 1786.5 501.375 1774.64 511.511 1763.44 C 521.253 1748.69 540.245 1729.04 552.311 1714.88 z"/>
<path transform="translate(0,0)" fill="url(#Gradient8)" d="M 654.781 1588.57 C 660.038 1584.68 668.459 1576.04 674.578 1575.07 C 663.542 1585.87 654.184 1598.85 644.453 1610.84 C 621.636 1638.97 599.879 1667.64 578.102 1696.55 C 569.803 1707.57 561.792 1719.96 552.651 1730.18 C 551.8 1730.48 550.846 1730.57 550.098 1731.07 C 548.261 1732.3 546.047 1736.05 544.514 1737.9 C 533.674 1751 521.277 1762.69 510.29 1775.65 C 505.394 1781.43 497.627 1794.37 491.252 1797.76 C 492.318 1791.89 501.361 1781.8 504.931 1776.43 C 518.686 1769 532.81 1743.47 541.799 1730.88 C 545.358 1725.9 549.718 1721.69 553.126 1716.56 L 552.311 1714.88 L 604.902 1648.8 C 620.745 1628.57 636.478 1606.57 654.781 1588.57 z"/>
<path transform="translate(0,0)" fill="rgb(67,46,67)" d="M 585.473 1634.51 C 588.906 1633.15 592.191 1631.7 595.866 1631.16 A 5265.31 5265.31 0 0 0 385.384 1884.49 A 887.33 887.33 0 0 1 356.29 1919.94 C 350.788 1926.39 343.946 1933.14 339.53 1940.36 L 340.176 1942.17 C 338.14 1944.77 336.133 1947.35 333.897 1949.78 C 327.129 1957.14 321.091 1965.74 314.582 1973.42 C 302.941 1987.16 290.148 2000.7 280.028 2015.61 C 283.848 2018.88 287.533 2021.05 292.055 2023.2 C 294.756 2020.37 303.153 2009.14 306.026 2009.03 L 306.438 2009.25 A 711.603 711.603 0 0 1 272.788 2048 L 248.697 2048 L 237.928 2048 L 232.728 2048 C 241.553 2038.66 249.506 2028.17 257.916 2018.43 C 281.054 1991.62 303.78 1964.78 325.981 1937.18 C 333.946 1931.45 371.437 1881.23 380.209 1870.16 C 387.968 1860.36 396.238 1851.01 404.492 1841.63 L 406.665 1843.01 C 418.334 1828.15 431.692 1814.15 444.002 1799.77 C 477.948 1760.1 512.683 1720.35 544.742 1679.15 C 548.906 1675.01 552.623 1670.51 556.395 1666.02 A 1062.41 1062.41 0 0 0 585.473 1634.51 z"/>
<path transform="translate(0,0)" fill="rgb(241,236,203)" d="M 339.53 1940.36 L 340.176 1942.17 C 338.14 1944.77 336.133 1947.35 333.897 1949.78 C 327.129 1957.14 321.091 1965.74 314.582 1973.42 C 302.941 1987.16 290.148 2000.7 280.028 2015.61 C 283.848 2018.88 287.533 2021.05 292.055 2023.2 C 294.756 2020.37 303.153 2009.14 306.026 2009.03 L 306.438 2009.25 A 711.603 711.603 0 0 1 272.788 2048 L 248.697 2048 C 280.372 2013.45 309.048 1975.97 339.53 1940.36 z"/>
<path transform="translate(0,0)" fill="rgb(110,139,168)" d="M 325.981 1937.18 C 333.946 1931.45 371.437 1881.23 380.209 1870.16 C 387.968 1860.36 396.238 1851.01 404.492 1841.63 L 406.665 1843.01 A 3450.74 3450.74 0 0 1 237.928 2048 L 232.728 2048 C 241.553 2038.66 249.506 2028.17 257.916 2018.43 C 281.054 1991.62 303.78 1964.78 325.981 1937.18 z"/>
<path transform="translate(0,0)" fill="rgb(149,141,104)" d="M 1815.62 905.964 C 1815.3 917.741 1812.7 959.964 1814.87 968.411 L 1816.05 969.595 C 1818.07 969.092 1867.63 931.335 1872.41 927.132 C 1878.76 921.562 1884.84 912.91 1891.8 908.589 C 1877.64 932.806 1838.2 967.361 1814.41 983.133 C 1808.01 1012.12 1806.42 1041.92 1799.26 1070.93 C 1787.07 1120.37 1768.24 1168.37 1759.09 1218.59 C 1798.55 1191.61 1842.71 1172.24 1885.09 1150.35 C 1894.05 1154.33 1902.95 1158.12 1912.22 1161.35 L 1675.46 1298.96 A 4476.04 4476.04 0 0 0 1602.08 1343.39 C 1588.64 1351.67 1574.73 1359.63 1561.86 1368.75 C 1558.78 1358.74 1556.53 1340.5 1546.41 1335.19 C 1542.44 1333.1 1536.99 1333.68 1532.61 1333.71 C 1532.96 1333.45 1533.3 1333.19 1533.65 1332.93 C 1546.29 1323.72 1561.39 1316.71 1575.14 1309.24 C 1599.49 1296.01 1623.95 1282.54 1649.05 1270.76 C 1664.65 1263.43 1681.64 1257.4 1696.25 1248.18 C 1737.56 1222.1 1781.24 1077.9 1793.54 1027.84 C 1797.97 1009.81 1800.87 991.361 1803.9 973.052 C 1805.6 962.71 1810.46 911.944 1812.88 908.039 L 1815.62 905.964 z"/>
<path transform="translate(0,0)" fill="rgb(110,139,168)" d="M 1115.02 1162.92 C 1115.89 1163.75 1115.49 1163.16 1115.58 1165 C 1102.05 1181.64 1086.31 1195.87 1070.74 1210.55 A 1585.36 1585.36 0 0 1 990.077 1282.32 C 956.008 1310.61 920.502 1337.41 885.495 1364.54 C 856.841 1386.74 828.55 1409.58 799.51 1431.26 C 769.774 1453.47 738.48 1473.86 708.138 1495.26 C 675.095 1518.56 536.107 1623.43 503.988 1620.47 L 503.107 1619.16 L 504.756 1616.38 C 516.664 1602.15 529.796 1588.87 542.24 1575.1 C 555.421 1560.51 568.038 1545.33 580.592 1530.2 C 591.928 1529.92 601.58 1527.04 611.785 1522.32 C 649.337 1504.96 686.426 1477.43 720.635 1454.19 C 771.577 1419.57 827.047 1382.78 874.293 1343.66 C 912.914 1311.69 951.872 1278.77 988.113 1244.12 C 1003.2 1229.7 1017.02 1214.24 1031.78 1199.57 C 1032.71 1201.21 1033.62 1202.89 1034.66 1204.46 C 1035.48 1205.71 1036.59 1207.75 1038.15 1207.9 C 1046.94 1208.74 1082.49 1186.81 1089.96 1181.79 C 1098.64 1175.95 1106.82 1169.41 1115.02 1162.92 z"/>
<path transform="translate(0,0)" fill="rgb(149,141,104)" d="M 627.568 2048 A 2465.79 2465.79 0 0 1 725.082 1948.02 A 3452.88 3452.88 0 0 1 867.352 1816.14 A 3971.06 3971.06 0 0 1 1116.54 1620.24 A 5409.44 5409.44 0 0 1 1169.82 1581.47 C 1178.53 1575.27 1187.78 1567.79 1197.43 1563.2 C 1202.3 1560.87 1208 1559.97 1213.36 1559.72 C 1228.65 1559.03 1248.49 1559.18 1260.5 1570.02 C 1263.59 1572.81 1266.21 1575.95 1268.76 1579.22 L 1267.53 1580.35 C 1248.69 1597.55 1219.11 1615.34 1197.61 1630.4 A 1685.92 1685.92 0 0 0 1112.02 1695.1 C 1073.34 1725.8 1036.09 1759.22 999.674 1792.56 C 913.384 1871.57 832.439 1955.19 761.005 2048 L 627.568 2048 z"/>
<path transform="translate(0,0)" fill="rgb(241,236,203)" d="M 982.507 1522.21 C 1010.1 1518.42 1031.16 1506.38 1053 1489.65 C 1057.99 1485.82 1063.41 1479.13 1068.82 1476.37 C 1070.52 1475.5 1069.69 1475.65 1071.6 1476.13 C 1081.64 1478.65 1090.34 1474.75 1099.87 1471.81 C 1133.39 1487.26 1165.05 1498.62 1196.17 1519.36 C 1183.29 1526.14 1168.3 1537.06 1163.98 1551.62 C 1162.43 1556.86 1163.01 1562.71 1163.38 1568.09 C 1122.69 1593.28 1083.89 1622.98 1045.43 1651.38 C 889.73 1766.32 733.324 1902.6 605.726 2048 L 422.138 2048 C 421.133 2030.93 419.001 2013.91 417.155 1996.91 C 416.064 1986.88 415.501 1976.43 413.647 1966.52 C 440.69 1942.02 466.361 1915.68 493.853 1891.76 C 521.432 1867.76 550.897 1845.82 578.839 1822.25 C 613.386 1793.1 646.687 1762.08 680.019 1731.56 C 716.477 1698.17 751.85 1663.83 787.807 1629.92 C 808.908 1610.03 830.577 1588.09 854.028 1571.1 C 871.134 1558.7 893.209 1553.1 912.092 1543.76 C 941.711 1529.12 971.315 1511.44 998.905 1493.29 C 994.968 1504.5 989.451 1512.61 982.507 1522.21 z"/>
<path transform="translate(0,0)" fill="rgb(134,201,175)" d="M 1183.65 377.832 A 368.307 368.307 0 0 0 1214.03 337.941 C 1234.11 307.536 1250.46 276.52 1278.88 252.578 C 1330.39 209.177 1408.29 175.543 1474.85 165.659 C 1501.44 161.711 1530.33 161.32 1557.07 163.738 C 1588.43 166.572 1629.53 176.244 1655.38 195.207 C 1663.13 200.896 1669.07 207.747 1675.21 215.098 C 1680.09 221.27 1690.85 232.578 1689.98 240.816 C 1689.92 241.348 1689.82 241.874 1689.74 242.403 C 1689.69 242.922 1689.66 243.443 1689.58 243.96 C 1688.42 251.938 1674.51 266.165 1667.94 270.914 L 1667.13 269.688 L 1667.06 271.834 C 1676.42 267.821 1685.78 254.426 1691.34 253.879 L 1692.8 251.754 L 1693.18 252.09 L 1692.87 253.357 L 1693.41 252.026 L 1690.84 249.773 L 1691.16 248.075 L 1692.11 248.474 L 1692 249.454 L 1693.35 249.427 A 291.182 291.182 0 0 1 1736.99 246.529 C 1746.68 246.642 1756.77 247.74 1766.42 247.03 C 1778.7 246.126 1790.35 241.936 1802.84 241.874 C 1822.8 237.722 1887.69 243.451 1909.75 246.421 L 1911.95 248.248 C 1903.66 248.493 1894.84 245.559 1886.79 246.186 C 1878.76 246.812 1869.97 249.561 1861.79 250.716 C 1799.75 259.476 1743.34 279.918 1685.97 304.057 C 1671.25 310.247 1656.77 317.674 1641.96 323.438 C 1648.84 324.666 1657.78 325.161 1664.2 327.646 L 1664.17 329.21 L 1667.79 329.625 C 1667.71 330.382 1667.27 331.056 1667 331.771 L 1665.12 330.131 C 1661.15 330.666 1656.98 331.526 1652.97 331.34 L 1652.24 331.794 C 1638.73 332.589 1624.63 326.686 1611.03 325.712 C 1594.93 331.556 1579.61 341.973 1564.56 350.143 A 654.028 654.028 0 0 1 1498.07 382.004 A 425.384 425.384 0 0 1 1437.34 402.373 C 1414.51 407.994 1391.34 411.735 1368.83 418.695 C 1356.14 422.621 1315.17 437.961 1308.97 449.871 C 1308.19 451.386 1309.54 453.75 1310.2 455.222 C 1323.22 453.48 1337.32 455.575 1350.44 455.827 C 1381.09 456.413 1417.72 456.028 1446.91 446.313 C 1458.63 442.411 1469.42 436.651 1480.35 430.964 C 1475.89 435.35 1468.96 440.553 1468.25 447.116 L 1469.69 448.789 C 1479.44 451.122 1499.05 443.946 1508.88 441.248 C 1499.95 452.032 1486.96 464.948 1483.34 478.595 L 1483.96 479.959 C 1492.12 477.265 1503.62 459.546 1510.22 453.356 C 1516.61 452.817 1523.04 452 1529.45 452.599 C 1521.42 469.21 1513.1 485.4 1507.89 503.162 C 1514.99 496.686 1520.05 489.896 1525.04 481.716 C 1525.7 481.787 1526.36 481.895 1527.02 481.929 C 1539.9 482.594 1552.13 470.992 1560.62 462.716 L 1560.43 464.024 C 1558.66 475.301 1552.57 489.244 1554.08 500.478 L 1555.25 500.83 C 1560.49 494.509 1563.32 485.61 1566.3 478.051 C 1574.25 474.752 1580.49 468.945 1586.66 463.114 C 1588.65 454.272 1592.21 444.873 1595.52 436.439 L 1598.07 435.769 C 1598.33 436.067 1598.58 436.376 1598.85 436.663 C 1599.86 437.732 1600.44 438.026 1601.79 438.508 C 1599.78 451.252 1597.84 464.282 1594.9 476.838 C 1596.41 477.004 1598.03 477.243 1599.55 477.16 C 1606.33 476.788 1610.77 470.219 1614.93 465.556 C 1615.65 482.289 1613.07 498.819 1615.31 515.597 C 1621.98 498.499 1624.26 478.702 1626.99 460.605 C 1630.58 462.694 1631.99 465.14 1632.94 469.061 C 1635.18 478.381 1633.3 495.709 1638.96 503.318 C 1639.56 506.034 1639.49 507.799 1641.49 509.83 C 1645.7 506.991 1646.66 496.078 1647.73 491.142 C 1652.63 488.448 1655.02 484.083 1658.05 479.576 C 1658.01 475.272 1658.12 471.16 1658.68 466.889 C 1665.54 481.844 1663.59 562.872 1664.28 585.177 C 1665.88 636.784 1671.25 687.939 1667.9 739.678 C 1665.61 775.053 1660.67 808.898 1651.62 843.189 A 704.34 704.34 0 0 1 1647.38 858.793 L 1646.82 846.56 C 1646.69 845.97 1646.55 845.382 1646.42 844.791 C 1646 842.776 1646.13 841.197 1646.45 839.159 L 1644.03 838.065 L 1644.86 838.131 L 1644.41 839.185 C 1641.17 846.852 1639.21 855.104 1636.66 863.031 C 1631.26 879.809 1625.73 896.652 1618.87 912.898 C 1597.51 963.43 1572 1011.3 1545.67 1059.36 C 1522.82 1101.06 1499.96 1142.26 1473.79 1182 C 1469.53 1188.47 1454.24 1207.53 1454.7 1213.73 L 1457.34 1217.84 C 1451.33 1231.96 1414.85 1268.7 1402.83 1282.14 C 1378.74 1309.08 1355.6 1336.96 1329.91 1362.45 C 1323.05 1369.26 1314.62 1378.04 1305.9 1382.43 L 1304.96 1381.26 C 1298.52 1382.36 1293.53 1391.13 1287.55 1393.75 C 1288.06 1385.74 1295.1 1375.51 1296.65 1366.42 C 1296.72 1365.99 1296.79 1365.56 1296.85 1365.12 C 1277.13 1385.75 1256.9 1407.59 1232.41 1422.62 C 1237.85 1416.79 1243.83 1411.55 1249.28 1405.75 C 1275.4 1377.93 1312.19 1336.22 1325.42 1300.7 A 779.295 779.295 0 0 1 1167.8 1431.18 C 1161.88 1434.93 1147.85 1445.13 1141.79 1445.88 C 1141.33 1445.93 1140.87 1445.86 1140.41 1445.86 L 1140.96 1444.34 L 1142.01 1444.65 C 1185.71 1412.88 1256.14 1350.07 1280.88 1302.2 C 1242.62 1336.33 1203.1 1368.61 1163.74 1401.46 C 1140.33 1420.99 1108.18 1451.53 1082.26 1464.73 C 1087.53 1450.6 1096.12 1438.77 1102.09 1425.16 C 1069.92 1451.44 1042.11 1481.54 1006.73 1504.06 C 1017.8 1489.58 1024.2 1474.35 1029.18 1456.89 C 1017.34 1463.16 1006.12 1470.55 994.385 1477.02 C 959.64 1496.17 915.434 1517.17 876.716 1524.72 C 889.111 1515.27 901.394 1505.47 914.125 1496.48 C 923.556 1489.83 952.516 1474.57 957.619 1466.17 L 956.286 1467.7 L 956.289 1465.8 C 929.617 1466.14 900.632 1477.66 872.956 1476.92 C 902.206 1466.32 944.305 1454.12 965.722 1431.33 C 927.553 1450.81 883.658 1462.88 841.263 1468.79 C 859.372 1458.57 878.373 1451.5 897.18 1442.83 C 933.386 1426.14 980.249 1399.1 1007.7 1370.54 C 1015.79 1362.13 1021.81 1352.87 1028.45 1343.38 L 1027.93 1344.88 C 1021.62 1362.71 996.149 1392.89 998.449 1410.52 L 999.776 1411.01 C 1007.86 1405.54 1013.86 1392.79 1019.63 1384.81 C 1018.4 1393.15 1014.12 1411.37 1018.77 1418.55 C 1021.11 1418.64 1021.1 1418.6 1022.73 1417.03 C 1032.39 1407.65 1038.33 1388.49 1047.15 1377.16 C 1048.17 1375.93 1048.09 1375.47 1048.39 1373.95 C 1048.08 1371.22 1048.1 1368.53 1048.66 1365.82 C 1048.79 1365.18 1048.94 1364.53 1049.08 1363.89 C 1047.88 1365.09 1047 1366.24 1045.3 1366.7 C 1045 1366.78 1044.7 1366.8 1044.4 1366.84 C 1038.25 1374.15 1033.55 1384.36 1028.78 1392.69 C 1032.73 1371.71 1035.03 1348.68 1042.77 1328.74 C 1046.81 1318.3 1052.76 1308.72 1057.62 1298.64 A 420.406 420.406 0 0 0 1037.9 1321.03 C 1028.59 1332.6 1011.07 1358.81 999.968 1366.12 C 1000.41 1362.49 1007.8 1355.71 1010.12 1352.18 C 1013.03 1347.76 1015.26 1342.98 1018.31 1338.63 C 1048.75 1295.36 1093.38 1264.24 1131.21 1227.95 C 1155.13 1205.01 1178.79 1181.25 1201.14 1156.76 C 1201.69 1156.51 1202.24 1156.29 1202.78 1156.02 C 1213.32 1150.58 1228.39 1117.8 1238 1115.18 L 1239.3 1116.82 C 1233.01 1128.31 1207.47 1150.72 1206.3 1160.16 C 1206.28 1160.37 1206.25 1160.57 1206.22 1160.78 C 1195.55 1176.08 1181.21 1188.81 1170.94 1204.48 C 1181.55 1197.95 1190.95 1189.09 1200.16 1180.75 C 1234.7 1149.47 1263.32 1114.47 1293.24 1078.98 C 1320.06 1047.17 1348.31 1015.81 1370.03 980.127 C 1386.83 952.522 1396.46 921.381 1412.95 893.944 C 1426.16 871.975 1445.38 856.177 1453.54 830.937 C 1445.02 837.747 1437.53 846.075 1429.52 853.489 C 1409.83 871.706 1389.76 889.781 1369.72 907.619 C 1359.65 916.581 1348.82 927.233 1337.18 934.038 C 1353.85 916.772 1367.4 897.014 1382.18 878.187 C 1405.22 848.845 1431.11 822.222 1446.74 787.925 C 1448.9 783.196 1452.05 778.313 1453.32 773.272 C 1453.85 771.14 1453.99 772.037 1452.98 770.301 C 1445.37 771.684 1432.53 791.815 1426.79 798.558 C 1408.6 819.95 1386.93 839.745 1366.42 858.972 C 1357.05 867.753 1345.29 875.321 1337.93 885.867 C 1352.27 880.692 1365.09 869.239 1377.56 860.514 C 1361.01 894.819 1331.67 931.171 1302.89 955.827 C 1302.25 924.41 1311.1 892.353 1306.03 860.967 C 1299.96 917.4 1285.49 997.336 1253.49 1045.43 C 1245.8 1047.58 1235.94 1057.51 1226.2 1061.13 C 1238.82 1022.83 1248.6 951.404 1241.25 911.779 C 1239.3 965.431 1229.34 1031.7 1204.54 1079.4 C 1201.76 1084.75 1199.06 1091.67 1194.96 1096.1 C 1194.92 1096.14 1194.87 1096.17 1194.82 1096.2 C 1180.89 1101.67 1168.3 1110.28 1154.23 1115.9 C 1174.71 1070.42 1194.08 1020.49 1191.7 969.778 C 1188.6 983.252 1186.59 996.969 1183.33 1010.39 C 1174.05 1048.52 1155.81 1100.3 1129.75 1129.36 C 1122.27 1127.08 1092.45 1142.4 1080.95 1143.7 C 1102.63 1107.11 1125.17 1065.66 1132.29 1023.26 C 1133.05 1018.79 1135.76 1007.93 1133.03 1004.08 L 1130.78 1006.29 L 1132.83 1004.22 C 1122.38 1049.29 1097.55 1102.82 1068.57 1139.17 L 1067.77 1140.16 C 1055.59 1136.43 1018.97 1158.81 1003.31 1160.49 C 1032.33 1119.21 1057.34 1075.01 1070.24 1025.98 C 1046.71 1069.19 1027.19 1108.08 997.358 1148 C 992.821 1154.07 987.592 1162.48 982.026 1167.34 C 963.019 1170.65 946.969 1180.8 927.037 1181.57 C 947.701 1152.59 966.528 1120.45 978.357 1086.82 C 956.414 1114.84 942.148 1147.91 917.94 1175.21 C 911.158 1172.97 878.779 1190.2 861.958 1190.2 C 875.674 1171.07 890.121 1148.94 899.115 1127.14 C 884.654 1145.68 871.82 1166.31 855.89 1183.57 C 840.772 1183.87 829.14 1189.38 815.532 1195.33 C 819.011 1187.95 823.984 1180.92 826.549 1173.16 C 830.152 1167.81 832.415 1161.88 834.784 1155.92 C 832.167 1156.19 830.531 1156.33 828.655 1158.36 C 827.287 1159.85 826.158 1161.71 825.032 1163.38 L 824.235 1162.85 C 817.472 1172.71 795.647 1206.88 783.11 1208.72 C 780.046 1209.17 779.164 1208.44 776.579 1207 C 775.899 1205.67 775.208 1204.44 774.763 1203.01 L 774.868 1196.76 C 777.066 1189.6 782.911 1180.76 787.371 1174.73 C 795.11 1160.59 807.42 1113.63 812.549 1096.43 C 824.582 1056.07 837.287 1015.41 852.396 976.095 C 864.765 943.911 879.16 912.131 894.397 881.198 C 902.867 864.002 913.694 847.571 919.907 829.385 C 897.349 837.77 880.075 857.578 862.775 873.584 C 884.988 839.753 904.997 804.638 930.545 773.095 C 946.487 753.411 963.263 734.274 980.02 715.286 C 991.715 702.033 1005.44 688.576 1014.43 673.364 C 996.198 679.601 982.338 689.856 966.798 700.962 C 989.937 671.849 1019.28 646.715 1045.42 620.239 C 1079.51 585.7 1119.15 541.194 1146.25 501.296 C 1158.94 482.619 1169.93 462.766 1180.99 443.1 C 1195.5 411.239 1213.33 380.905 1226.93 348.634 C 1213.95 360.662 1200.88 372.597 1188.5 385.262 C 1187.21 382.564 1185.4 380.241 1183.65 377.832 z"/>
<path transform="translate(0,0)" fill="rgb(57,46,56)" d="M 1218.54 876.35 C 1219.98 879.359 1218.48 881.775 1217.6 884.906 L 1219.27 884.702 C 1219.98 882.743 1220.67 880.803 1221.54 878.906 L 1222.61 880.703 C 1221.4 883.748 1220.11 887.518 1217.21 889.405 C 1215.04 890.827 1212.82 891.373 1210.28 890.555 C 1205.21 888.925 1202.73 883.754 1200.67 879.296 C 1202.95 879.271 1201.8 878.951 1203.71 880.331 C 1205.02 881.281 1205.84 881.794 1207.33 882.295 L 1208.5 881.901 C 1210.56 883.958 1211.09 884.888 1213.99 885.527 C 1216.72 883.565 1217.51 879.455 1218.54 876.35 z"/>
<path transform="translate(0,0)" fill="rgb(67,46,67)" d="M 1499.93 636.559 C 1500.21 637.073 1500.5 637.581 1500.77 638.102 C 1506.62 649.516 1506.89 671.394 1502.95 683.465 L 1501.87 683.517 C 1497.54 677.138 1498.52 645.037 1499.93 636.559 z"/>
<path transform="translate(0,0)" fill="rgb(67,46,67)" d="M 875.447 1110.48 C 876.821 1115.32 875.468 1117.89 873.801 1122.44 L 874.594 1124.26 L 875.588 1123.78 L 876.421 1124.13 C 871.71 1136 860.921 1156.31 848.633 1161.47 C 845.846 1162.63 843.871 1162.62 841.113 1161.39 C 844.108 1160.86 846.803 1160.37 849.614 1159.13 L 850.176 1157.11 L 848.17 1154.55 C 862.663 1146.21 871.083 1125.79 875.447 1110.48 z"/>
<path transform="translate(0,0)" fill="rgb(67,46,67)" d="M 1373.62 1179.85 C 1373.61 1180.43 1373.67 1181.02 1373.59 1181.6 C 1371.69 1195.8 1347.41 1222.62 1336.85 1232.26 L 1336.51 1230.56 C 1341.6 1218.47 1364.41 1191.18 1373.62 1179.85 z"/>
<path transform="translate(0,0)" fill="rgb(67,46,67)" d="M 1599.46 896.769 L 1600.3 897.645 C 1602.44 917.6 1592.22 954.206 1583.23 972.169 L 1582.38 971.08 C 1583.18 960.32 1587.64 948.669 1590.4 938.164 A 594.236 594.236 0 0 0 1599.46 896.769 z"/>
<path transform="translate(0,0)" fill="rgb(57,46,56)" d="M 1606.08 625.458 C 1606.71 625.769 1607.35 626.017 1607.87 626.511 C 1614.79 633.001 1623.42 682.375 1624.6 693.643 L 1622.85 693.16 C 1615.55 681.846 1607.92 640.131 1606.08 625.458 z"/>
<path transform="translate(0,0)" fill="rgb(67,46,67)" d="M 1536.93 724.631 C 1537.81 725.257 1538.35 725.555 1539 726.519 C 1545.84 736.537 1543.32 776.408 1540.71 788.605 L 1539.41 788.679 C 1535.82 776.947 1534.76 736.884 1536.93 724.631 z"/>
<path transform="translate(0,0)" fill="rgb(67,46,67)" d="M 1513.99 844.624 C 1515.49 845.877 1516.22 847.153 1516.68 849.025 C 1520.85 866.14 1516.77 891.546 1508.02 906.641 L 1505.63 906.674 C 1503.84 901.748 1509.93 879.52 1510.94 872.588 C 1512.28 863.283 1512.96 853.959 1513.99 844.624 z"/>
<path transform="translate(0,0)" fill="rgb(80,52,81)" d="M 1498 728.5 L 1499.46 729.832 C 1504.28 747.743 1500.02 776.871 1491.69 793.35 L 1490.69 793.419 C 1488.47 787.356 1495.59 736.609 1498 728.5 z"/>
<path transform="translate(0,0)" fill="rgb(67,46,67)" d="M 1606.67 786.432 L 1608.06 787.562 C 1615.03 803.848 1609.57 841.369 1604.2 857.742 C 1603.4 858.22 1603.96 857.972 1602.4 858.043 C 1601.13 851.772 1604.92 794.624 1606.67 786.432 z"/>
<path transform="translate(0,0)" fill="rgb(67,46,67)" d="M 1489.51 923.702 C 1489.73 924.878 1489.92 926.052 1490.02 927.244 C 1491.63 946.178 1481.39 982.932 1468.97 997.448 C 1467.05 989.623 1486.13 935.309 1489.51 923.702 z"/>
<path transform="translate(0,0)" fill="rgb(67,46,67)" d="M 1543.02 1018.52 C 1543.84 1020.45 1543.83 1019.87 1543.86 1021.77 C 1544.21 1039.3 1519.8 1083.04 1507.33 1096.12 C 1507.1 1090.61 1522.55 1064.08 1525.93 1056.86 C 1531.86 1044.2 1536.79 1031.03 1543.02 1018.52 z"/>
<path transform="translate(0,0)" fill="rgb(80,52,81)" d="M 1326.03 1138.65 L 1327.32 1139.57 C 1322.45 1157.65 1298.91 1183.5 1283.55 1194.06 L 1282.66 1193.91 L 1282.15 1192.68 C 1288.72 1181.66 1316.38 1148.38 1326.03 1138.65 z"/>
<path transform="translate(0,0)" fill="rgb(67,46,67)" d="M 1560.13 607.666 L 1561.41 608.836 C 1569.64 631.136 1569.22 666.76 1567.66 690.419 C 1566.67 690.625 1567.39 690.537 1565.5 690.035 C 1561 676.263 1559.51 623.396 1560.13 607.666 z"/>
<path transform="translate(0,0)" fill="rgb(67,46,67)" d="M 1243.46 1230.05 C 1243.46 1230.54 1243.54 1231.03 1243.47 1231.51 C 1243.21 1233.25 1241.44 1235.96 1240.64 1237.58 C 1230.71 1257.79 1211.03 1278.83 1191.8 1290.43 L 1191.6 1289.32 C 1195.06 1279.08 1233.75 1239.7 1243.46 1230.05 z"/>
<path transform="translate(0,0)" fill="rgb(67,46,67)" d="M 1410.43 997.485 C 1411.04 998.024 1411.51 998.862 1411.98 999.529 C 1411.21 1020.28 1388.64 1060.93 1374.04 1075.23 L 1373.51 1074.76 C 1372.49 1070.88 1406.31 1005.02 1410.43 997.485 z"/>
<path transform="translate(0,0)" fill="rgb(67,46,67)" d="M 1478.39 1033.57 C 1478.94 1034.08 1479.34 1034.9 1479.74 1035.53 C 1477.23 1059.26 1456.39 1096.84 1438.85 1113.09 L 1437.79 1112.12 C 1437.76 1109.66 1438.84 1107.52 1439.94 1105.37 C 1445.79 1093.9 1452.89 1083.01 1458.93 1071.62 C 1465.59 1059.02 1471.27 1045.93 1478.39 1033.57 z"/>
<path transform="translate(0,0)" fill="rgb(67,46,67)" d="M 1595.52 436.439 L 1598.07 435.769 C 1598.33 436.067 1598.58 436.376 1598.85 436.663 C 1599.86 437.732 1600.44 438.026 1601.79 438.508 C 1599.78 451.252 1597.84 464.282 1594.9 476.838 C 1592.24 487.393 1590.51 499.983 1584.6 509.222 L 1583.35 509.411 C 1580.55 499.001 1585.76 475.014 1586.66 463.114 C 1588.65 454.272 1592.21 444.873 1595.52 436.439 z"/>
<path transform="translate(0,0)" fill="rgb(67,46,67)" d="M 1100.7 1295.49 C 1095.48 1309.4 1086.12 1321.37 1077.97 1333.69 A 230.374 230.374 0 0 0 1059.2 1367.18 L 1058.43 1362.44 C 1057.05 1362.06 1056.61 1361.51 1055.33 1362.44 C 1051.84 1364.99 1049.89 1370.04 1048.39 1373.95 C 1048.08 1371.22 1048.1 1368.53 1048.66 1365.82 C 1048.79 1365.18 1048.94 1364.53 1049.08 1363.89 C 1047.88 1365.09 1047 1366.24 1045.3 1366.7 C 1045 1366.78 1044.7 1366.8 1044.4 1366.84 C 1059.92 1340.79 1080.63 1318.04 1100.7 1295.49 z"/>
<path transform="translate(0,0)" fill="rgb(67,46,67)" d="M 1586.99 699.327 C 1588.28 700.149 1589.04 700.679 1589.91 702.013 C 1599.27 716.422 1594.01 769.38 1590.38 786.543 C 1589.44 787.779 1588.74 788.4 1587.54 789.335 L 1586.24 788.202 C 1584.68 779.742 1585.56 709.395 1586.99 699.327 z"/>
<path transform="translate(0,0)" fill="url(#Gradient9)" d="M 1646.82 846.56 C 1646.8 820.294 1643.37 793.243 1639.91 767.243 C 1637.97 752.598 1634.36 736.416 1635.08 721.638 C 1646.18 749.949 1649.53 782.921 1650.75 813.17 C 1651.13 822.446 1648.69 834.493 1651.62 843.189 A 704.34 704.34 0 0 1 1647.38 858.793 L 1646.82 846.56 z"/>
<path transform="translate(0,0)" fill="rgb(80,52,81)" d="M 1561.69 825.355 C 1563.63 826.789 1564.31 828.176 1564.91 830.464 C 1572.25 858.714 1566.98 894.228 1552.82 919.573 C 1551.98 920.681 1552.58 920.024 1550.75 921.253 C 1548.39 916.953 1551.73 905.967 1552.65 901.263 C 1554.98 889.278 1557.03 877.353 1558.02 865.176 C 1559.1 852.001 1559.04 838.309 1561.69 825.355 z"/>
<path transform="translate(0,0)" fill="rgb(80,52,81)" d="M 1296.85 1365.12 C 1312.01 1347.44 1328.11 1330.29 1342.52 1312 A 772.438 772.438 0 0 0 1362.93 1284.73 C 1370.27 1274.33 1377.83 1259.54 1387.65 1251.63 C 1377.14 1285.67 1352.2 1327.13 1330.15 1354.85 C 1322.7 1364.21 1312.46 1372.63 1305.9 1382.43 L 1304.96 1381.26 C 1298.52 1382.36 1293.53 1391.13 1287.55 1393.75 C 1288.06 1385.74 1295.1 1375.51 1296.65 1366.42 C 1296.72 1365.99 1296.79 1365.56 1296.85 1365.12 z"/>
<path transform="translate(0,0)" fill="rgb(80,52,81)" d="M 1079.59 1422.09 A 404.026 404.026 0 0 0 1148.62 1367.49 C 1158.42 1358.02 1167.36 1347.54 1177.44 1338.39 C 1158.27 1376.27 1119.84 1417.85 1078.77 1431.2 A 776.784 776.784 0 0 1 1064.94 1435.47 A 288.965 288.965 0 0 1 1084.76 1391.33 C 1076.12 1398.13 1049.12 1420.86 1039.43 1420.76 C 1039.11 1420.76 1038.81 1420.67 1038.5 1420.63 C 1036.01 1416.51 1038.37 1408.68 1039.45 1404.2 C 1041.65 1395.12 1044.56 1386.14 1047.15 1377.16 C 1048.17 1375.93 1048.09 1375.47 1048.39 1373.95 C 1049.89 1370.04 1051.84 1364.99 1055.33 1362.44 C 1056.61 1361.51 1057.05 1362.06 1058.43 1362.44 L 1059.2 1367.18 C 1054.81 1379.35 1051.69 1391.95 1048.33 1404.43 L 1049.39 1403.76 C 1063.09 1394.91 1077.62 1384.39 1088.65 1372.36 C 1092.76 1367.87 1099.39 1357.81 1105.23 1356.89 L 1105.81 1357.38 C 1098.74 1378.86 1090.11 1402.03 1079.59 1422.09 z"/>
<path transform="translate(0,0)" fill="rgb(78,56,78)" d="M 1802.84 241.874 C 1822.8 237.722 1887.69 243.451 1909.75 246.421 L 1911.95 248.248 C 1903.66 248.493 1894.84 245.559 1886.79 246.186 C 1878.76 246.812 1869.97 249.561 1861.79 250.716 C 1799.75 259.476 1743.34 279.918 1685.97 304.057 C 1671.25 310.247 1656.77 317.674 1641.96 323.438 C 1648.84 324.666 1657.78 325.161 1664.2 327.646 L 1664.17 329.21 L 1667.79 329.625 C 1667.71 330.382 1667.27 331.056 1667 331.771 L 1665.12 330.131 C 1661.15 330.666 1656.98 331.526 1652.97 331.34 L 1652.24 331.794 C 1638.73 332.589 1624.63 326.686 1611.03 325.712 C 1594.93 331.556 1579.61 341.973 1564.56 350.143 A 654.028 654.028 0 0 1 1498.07 382.004 A 425.384 425.384 0 0 1 1437.34 402.373 C 1414.51 407.994 1391.34 411.735 1368.83 418.695 C 1356.14 422.621 1315.17 437.961 1308.97 449.871 C 1308.19 451.386 1309.54 453.75 1310.2 455.222 C 1323.15 478.675 1337.38 502.371 1353.26 523.958 C 1364.62 539.405 1377.65 553.682 1388.23 569.7 C 1414.55 609.564 1419.83 657.016 1406.79 702.481 C 1399.33 728.485 1387.74 753.909 1374.93 777.684 C 1388.36 762.359 1402.09 747.259 1415.35 731.788 C 1422.88 723.007 1429.68 712.27 1438.58 704.897 C 1430.71 752.987 1391.28 822.547 1351.94 850.998 C 1344.75 856.198 1337.42 860.129 1329.14 863.309 C 1343.91 847.795 1358.49 831.822 1371.08 814.453 C 1384.67 795.704 1396.44 775.541 1409.29 756.274 C 1388.36 778.122 1359.81 810.388 1334.05 826.025 C 1341.22 814.766 1350.08 803.931 1356.18 792.09 C 1374.5 756.514 1383.34 715.914 1397.18 678.519 C 1387.21 694.222 1373.08 715.136 1353.53 719.388 C 1351.07 719.922 1348.85 719.829 1346.37 719.532 L 1345.01 717.965 C 1364.6 706.979 1379.86 692.039 1388.73 671.143 C 1398.21 648.807 1397.84 626.622 1388.68 604.238 C 1380.77 584.909 1367.45 567.71 1347.65 559.693 C 1299.13 540.054 1214.07 566.289 1167.48 586.725 C 1149.27 594.714 1132.05 605.103 1113.7 612.682 L 1112.53 613.159 C 1173.14 568.649 1226.05 548.391 1301.49 542.714 C 1325.56 542.505 1348.42 546.27 1368.39 560.343 C 1361.29 548.613 1352.55 537.724 1345 526.226 C 1316.4 482.633 1283.61 426.247 1280.48 373.496 C 1279.97 364.752 1279.16 343.553 1285.11 336.778 C 1297.25 326.405 1312.55 316.696 1327.28 310.489 C 1360.98 296.292 1398.87 291.811 1433.71 280.625 C 1454.05 274.094 1470.46 257.762 1493.01 258.113 C 1515.65 258.464 1537.91 267.042 1559.42 273.249 C 1587.5 281.354 1619.85 282.179 1648.75 277.654 C 1667.67 274.69 1679.42 256.915 1689.74 242.403 C 1689.69 242.922 1689.66 243.443 1689.58 243.96 C 1688.42 251.938 1674.51 266.165 1667.94 270.914 L 1667.13 269.688 L 1667.06 271.834 C 1676.42 267.821 1685.78 254.426 1691.34 253.879 L 1692.8 251.754 L 1693.18 252.09 L 1692.87 253.357 L 1693.41 252.026 L 1690.84 249.773 L 1691.16 248.075 L 1692.11 248.474 L 1692 249.454 L 1693.35 249.427 A 291.182 291.182 0 0 1 1736.99 246.529 C 1746.68 246.642 1756.77 247.74 1766.42 247.03 C 1778.7 246.126 1790.35 241.936 1802.84 241.874 z"/>
<path transform="translate(0,0)" fill="rgb(99,76,105)" d="M 1527.14 309.253 C 1529.69 308.264 1531.28 308.359 1533.95 308.52 L 1535.9 310.206 C 1533.44 312.753 1530.52 316.62 1527.08 317.352 C 1525.72 314.766 1526.66 311.995 1527.14 309.253 z"/>
<path transform="translate(0,0)" fill="rgb(220,191,144)" d="M 1541.21 308.721 C 1543.36 308.45 1545.12 308.19 1547.25 308.648 L 1548 310.602 A 542.212 542.212 0 0 1 1542.49 320.919 C 1539.85 318.795 1538.79 316.399 1537.49 313.357 L 1541.21 308.721 z"/>
<path transform="translate(0,0)" fill="rgb(241,236,203)" d="M 1488.75 276.025 C 1490.41 276.258 1492.48 276.412 1494.03 277.037 C 1496.41 277.997 1498.64 280.759 1499.58 283.15 C 1500.55 285.618 1500.72 287.911 1499.61 290.373 C 1498.42 293.029 1496.24 293.754 1493.76 294.811 C 1492.22 294.607 1490.43 294.463 1488.95 293.951 C 1486.37 293.054 1484.28 291.02 1483.07 288.571 C 1481.86 286.122 1481.68 284.021 1482.6 281.414 C 1483.69 278.326 1486.11 277.435 1488.75 276.025 z"/>
<path transform="translate(0,0)" fill="rgb(241,236,203)" d="M 1464.41 278.457 C 1472.17 271.013 1482.55 265.871 1493.5 266.298 A 33.9038 33.9038 0 0 1 1518.15 278.463 C 1525.3 286.927 1526.55 296.767 1525.38 307.431 L 1525.27 308.361 C 1522.65 316.753 1520.23 322.094 1512.3 326.743 C 1507.91 331.123 1498.96 334.929 1493.07 336.089 A 40.7921 40.7921 0 0 1 1461.09 328.798 C 1451.53 321.794 1447.19 313.185 1445.31 301.819 L 1446.45 299.702 C 1455.59 314.253 1457.68 326.115 1477.67 330.619 C 1487.76 332.893 1498.59 330.444 1507.14 324.727 C 1510.28 322.629 1513.02 319.908 1515.8 317.371 C 1516.74 315.931 1517.65 314.477 1518.46 312.961 C 1522.51 305.337 1523.73 297.025 1520.8 288.749 C 1518.11 281.169 1512.79 274.644 1505.44 271.204 C 1487.81 262.961 1480.91 272.295 1465.94 277.901 C 1465.43 278.092 1464.92 278.272 1464.41 278.457 z"/>
<path transform="translate(0,0)" fill="rgb(197,200,207)" d="M 1807.77 244.56 C 1825.72 243.21 1843.16 244.239 1861.06 245.684 L 1861.44 246.17 C 1852.01 248.117 1842.37 248.398 1832.9 250.203 A 592.809 592.809 0 0 0 1748.19 272.921 A 614.191 614.191 0 0 0 1697.18 292.981 C 1679.23 300.775 1640.81 320.663 1623.33 322.374 C 1623.57 321.928 1623.7 321.41 1624.04 321.038 C 1628.21 316.454 1645.33 308.362 1651.38 304.903 C 1685.4 285.483 1722.86 263.605 1760.67 252.962 C 1775.74 248.721 1792.2 246.197 1807.77 244.56 z"/>
<path transform="translate(0,0)" fill="rgb(207,159,123)" d="M 1550.84 331.036 C 1572.86 313.269 1578.14 310.824 1590.62 283.809 C 1581.63 330.491 1552.28 347.438 1511.41 365.464 C 1487.29 376.107 1462.72 385.399 1437.21 392.156 C 1409.45 399.511 1380.45 404.735 1353.56 414.961 C 1335.98 421.649 1320.94 431.107 1305.9 442.203 C 1293.03 412.111 1279.76 374.305 1285.5 341.401 C 1297.58 333.939 1309.61 326.381 1322.66 320.689 C 1359.86 304.465 1403.48 298.816 1443.07 290.084 C 1441.9 300.186 1442.49 308.696 1444.32 318.676 L 1445.97 320.546 C 1445.65 321.11 1445.48 321.826 1444.95 322.201 C 1446.91 324.035 1448.02 325.018 1448.91 327.627 L 1453.07 331.58 C 1463.12 337.873 1470.86 343.789 1483.38 344.668 C 1506.36 346.282 1521.64 326.787 1537.49 313.357 C 1538.79 316.399 1539.85 318.795 1542.49 320.919 L 1538.02 327.889 C 1550.52 320.465 1558.91 310.82 1568.96 300.512 C 1563.74 311.203 1557.57 321.233 1550.84 331.036 z"/>
<path transform="translate(0,0)" fill="rgb(57,46,56)" d="M 1448.91 327.627 L 1453.07 331.58 C 1436.21 338.053 1418.71 341.923 1401.01 345.192 A 4608.04 4608.04 0 0 1 1448.91 327.627 z"/>
<path transform="translate(0,0)" fill="rgb(57,46,56)" d="M 1389.86 337.428 C 1405.24 326.03 1425.45 320.416 1444.32 318.676 L 1445.97 320.546 C 1445.65 321.11 1445.48 321.826 1444.95 322.201 C 1426.2 326.454 1407.82 330.359 1389.86 337.428 z"/>
<path transform="translate(0,0)" fill="rgb(134,201,175)" d="M 1183.65 377.832 A 368.307 368.307 0 0 0 1214.03 337.941 C 1234.11 307.536 1250.46 276.52 1278.88 252.578 C 1330.39 209.177 1408.29 175.543 1474.85 165.659 C 1501.44 161.711 1530.33 161.32 1557.07 163.738 C 1588.43 166.572 1629.53 176.244 1655.38 195.207 C 1663.13 200.896 1669.07 207.747 1675.21 215.098 C 1680.09 221.27 1690.85 232.578 1689.98 240.816 C 1689.92 241.348 1689.82 241.874 1689.74 242.403 C 1679.42 256.915 1667.67 274.69 1648.75 277.654 C 1619.85 282.179 1587.5 281.354 1559.42 273.249 C 1537.91 267.042 1515.65 258.464 1493.01 258.113 C 1470.46 257.762 1454.05 274.094 1433.71 280.625 C 1398.87 291.811 1360.98 296.292 1327.28 310.489 C 1312.55 316.696 1297.25 326.405 1285.11 336.778 C 1279.16 343.553 1279.97 364.752 1280.48 373.496 C 1283.61 426.247 1316.4 482.633 1345 526.226 C 1352.55 537.724 1361.29 548.613 1368.39 560.343 C 1348.42 546.27 1325.56 542.505 1301.49 542.714 C 1294.6 538.079 1283 536.374 1275.03 533.461 C 1243.13 521.794 1211.5 499.522 1193.75 470.089 C 1188.52 461.423 1185.2 452.228 1180.99 443.1 C 1195.5 411.239 1213.33 380.905 1226.93 348.634 C 1213.95 360.662 1200.88 372.597 1188.5 385.262 C 1187.21 382.564 1185.4 380.241 1183.65 377.832 z"/>
<path transform="translate(0,0)" fill="rgb(241,236,203)" d="M 1580.13 229.055 C 1577.74 227.434 1575.33 225.815 1573.03 224.062 C 1570.49 222.128 1567.7 219.578 1567.26 216.274 L 1568.53 215.033 C 1585.05 212.716 1609.6 231.134 1623.99 238.415 L 1625.22 237.901 C 1624.56 235.927 1623.37 233.382 1623.17 231.32 C 1622.89 228.491 1623.34 227.852 1624.9 225.702 C 1638.83 220.094 1647.27 235.72 1658.42 235.484 L 1659.3 233.944 C 1658.86 230.165 1656.74 227.103 1654.88 223.86 C 1661.92 222.102 1670.74 221.331 1675.21 215.098 C 1680.09 221.27 1690.85 232.578 1689.98 240.816 C 1689.92 241.348 1689.82 241.874 1689.74 242.403 C 1679.42 256.915 1667.67 274.69 1648.75 277.654 C 1619.85 282.179 1587.5 281.354 1559.42 273.249 C 1537.91 267.042 1515.65 258.464 1493.01 258.113 C 1470.46 257.762 1454.05 274.094 1433.71 280.625 C 1398.87 291.811 1360.98 296.292 1327.28 310.489 C 1312.55 316.696 1297.25 326.405 1285.11 336.778 C 1285.33 332.494 1286.8 328.346 1288.19 324.317 C 1306.83 270.202 1377.95 269.533 1422.23 247.94 C 1433.29 232.763 1436.53 243.24 1448.44 236.175 L 1448.46 234.808 C 1446.32 233.63 1444.89 232.843 1443.31 230.932 L 1443.98 228.502 C 1453.35 218.411 1467.31 231.418 1477.53 226.653 L 1476.75 226.501 C 1476.06 224.76 1476.47 225.517 1475.24 223.761 C 1474.93 223.315 1474.61 222.877 1474.29 222.436 C 1474.91 220.086 1475.35 220.267 1477.2 218.867 C 1487.45 218.451 1495.28 224.535 1503.98 229.08 C 1512.95 233.767 1520.39 234.059 1529.87 231.051 L 1531.26 230.596 C 1535.02 232.545 1539.66 235.631 1544.04 234.811 C 1545.73 231.717 1544.61 229.452 1544.63 226.022 C 1544.66 223.323 1545.31 222.575 1547.2 220.772 C 1557.32 218.169 1571.02 225.2 1580.13 229.055 z"/>
<path transform="translate(0,0)" fill="rgb(207,159,123)" d="M 966.798 700.962 C 989.937 671.849 1019.28 646.715 1045.42 620.239 C 1079.51 585.7 1119.15 541.194 1146.25 501.296 C 1158.94 482.619 1169.93 462.766 1180.99 443.1 C 1185.2 452.228 1188.52 461.423 1193.75 470.089 C 1211.5 499.522 1243.13 521.794 1275.03 533.461 C 1283 536.374 1294.6 538.079 1301.49 542.714 C 1226.05 548.391 1173.14 568.649 1112.53 613.159 L 1113.7 612.682 C 1132.05 605.103 1149.27 594.714 1167.48 586.725 C 1214.07 566.289 1299.13 540.054 1347.65 559.693 C 1367.45 567.71 1380.77 584.909 1388.68 604.238 C 1397.84 626.622 1398.21 648.807 1388.73 671.143 C 1379.86 692.039 1364.6 706.979 1345.01 717.965 C 1341.47 714.71 1330.02 714.945 1325.01 714.348 C 1319.4 723.547 1314.74 729.482 1305.31 735.108 C 1304.59 747.047 1299.81 781.715 1289.6 789.054 C 1287.54 790.533 1286.56 790.073 1284.33 789.532 C 1278.72 784.727 1275.37 776.307 1272.16 769.752 C 1272.1 789.382 1270.53 830.775 1255.37 845.085 C 1253.31 847.029 1251.88 847.275 1249.15 847.522 C 1242.48 844.973 1239.01 837.768 1236.26 831.563 C 1234.4 827.362 1232.87 823.024 1231.36 818.69 C 1229.83 838.018 1230.33 862.993 1222.61 880.703 L 1221.54 878.906 C 1220.67 880.803 1219.98 882.743 1219.27 884.702 L 1217.6 884.906 C 1218.48 881.775 1219.98 879.359 1218.54 876.35 C 1217.51 879.455 1216.72 883.565 1213.99 885.527 C 1211.09 884.888 1210.56 883.958 1208.5 881.901 L 1207.33 882.295 C 1205.84 881.794 1205.02 881.281 1203.71 880.331 C 1201.8 878.951 1202.95 879.271 1200.67 879.296 C 1197.68 873.51 1195.79 867.212 1193.69 861.068 C 1192.96 879.21 1195.29 927.329 1181.5 939.228 C 1179.6 940.867 1177.98 941.443 1175.47 941.144 C 1167.25 940.166 1158.86 928.568 1154.66 921.911 C 1147.67 910.818 1143.73 898.599 1138.02 886.938 C 1137.19 911.25 1135.36 968.395 1116.33 985.735 C 1114.24 987.641 1111.68 988.859 1108.8 988.36 C 1101.55 987.101 1095.28 977.324 1091.89 971.31 C 1087.4 963.335 1084.35 954.606 1081.2 946.041 C 1080.77 972.392 1074.37 1019.12 1054.39 1037.98 C 1050.66 1041.49 1045.94 1044.08 1040.69 1043.76 C 1034.83 1043.4 1029.8 1038.9 1026.3 1034.55 C 1022.35 1029.62 1019.26 1023.62 1016.23 1018.08 C 1009.3 1037.59 1000.57 1074.49 979.932 1084.64 C 976.785 1086.19 973.312 1086.62 969.965 1085.45 C 961.329 1082.44 955.118 1071.58 951.705 1063.61 A 310.52 310.52 0 0 1 947.763 1053.73 C 941.254 1073.08 929.125 1108.62 909.41 1117.97 C 905.288 1119.93 900.953 1120.38 896.644 1118.75 C 890.181 1116.3 886.504 1110.72 882.923 1105.15 C 881.248 1111.49 879.772 1118.43 876.421 1124.13 L 875.588 1123.78 L 874.594 1124.26 L 873.801 1122.44 C 875.468 1117.89 876.821 1115.32 875.447 1110.48 C 871.083 1125.79 862.663 1146.21 848.17 1154.55 L 850.176 1157.11 L 849.614 1159.13 C 846.803 1160.37 844.108 1160.86 841.113 1161.39 C 839.51 1158.66 839.084 1155.72 836.512 1153.71 L 834.784 1155.92 C 832.167 1156.19 830.531 1156.33 828.655 1158.36 C 827.287 1159.85 826.158 1161.71 825.032 1163.38 L 824.235 1162.85 C 817.472 1172.71 795.647 1206.88 783.11 1208.72 C 780.046 1209.17 779.164 1208.44 776.579 1207 C 775.899 1205.67 775.208 1204.44 774.763 1203.01 L 774.868 1196.76 C 777.066 1189.6 782.911 1180.76 787.371 1174.73 C 795.11 1160.59 807.42 1113.63 812.549 1096.43 C 824.582 1056.07 837.287 1015.41 852.396 976.095 C 864.765 943.911 879.16 912.131 894.397 881.198 C 902.867 864.002 913.694 847.571 919.907 829.385 C 897.349 837.77 880.075 857.578 862.775 873.584 C 884.988 839.753 904.997 804.638 930.545 773.095 C 946.487 753.411 963.263 734.274 980.02 715.286 C 991.715 702.033 1005.44 688.576 1014.43 673.364 C 996.198 679.601 982.338 689.856 966.798 700.962 z"/>
<path transform="translate(0,0)" fill="rgb(67,46,67)" d="M 774.868 1196.76 C 777.066 1189.6 782.911 1180.76 787.371 1174.73 C 784.509 1183.26 781.08 1192.07 779.787 1201 L 774.763 1203.01 L 774.868 1196.76 z"/>
<path transform="translate(0,0)" fill="rgb(67,46,67)" d="M 826.698 1151.25 C 825.468 1155.19 824.352 1158.68 824.235 1162.85 C 817.472 1172.71 795.647 1206.88 783.11 1208.72 C 780.046 1209.17 779.164 1208.44 776.579 1207 C 775.899 1205.67 775.208 1204.44 774.763 1203.01 L 779.787 1201 C 788.599 1198.3 818.386 1160.43 826.698 1151.25 z"/>
<path transform="translate(0,0)" fill="rgb(78,56,78)" d="M 833.837 1141.04 C 831.863 1092.22 841.276 1044.72 859.946 999.605 C 862.354 993.787 865.336 983.467 869.43 978.835 C 869.262 982.346 867.217 985.922 866.272 989.329 C 863.598 998.956 860.784 1009.14 858.602 1018.89 C 852.536 1046 841.798 1115.65 844.397 1142.26 C 844.841 1146.81 845.971 1150.57 848.17 1154.55 L 850.176 1157.11 L 849.614 1159.13 C 846.803 1160.37 844.108 1160.86 841.113 1161.39 C 839.51 1158.66 839.084 1155.72 836.512 1153.71 L 834.784 1155.92 C 832.167 1156.19 830.531 1156.33 828.655 1158.36 C 827.287 1159.85 826.158 1161.71 825.032 1163.38 L 824.235 1162.85 C 824.352 1158.68 825.468 1155.19 826.698 1151.25 C 829.198 1147.94 831.849 1144.7 833.837 1141.04 z"/>
<path transform="translate(0,0)" fill="rgb(78,56,78)" d="M 1287.89 783.764 C 1308.12 740.216 1274.31 659.542 1288.26 637.658 L 1289.27 638.348 C 1295 667.65 1301.48 696.523 1306.36 726.003 C 1320.57 711.949 1328.14 694.784 1330.01 674.807 C 1330.62 668.255 1330.19 661.751 1331.24 655.228 L 1332.66 655.44 C 1333.19 656.382 1333.44 656.734 1333.82 657.675 C 1339.81 672.529 1331.45 700.557 1325.01 714.348 C 1319.4 723.547 1314.74 729.482 1305.31 735.108 C 1304.59 747.047 1299.81 781.715 1289.6 789.054 C 1287.54 790.533 1286.56 790.073 1284.33 789.532 C 1278.72 784.727 1275.37 776.307 1272.16 769.752 C 1272.1 789.382 1270.53 830.775 1255.37 845.085 C 1253.31 847.029 1251.88 847.275 1249.15 847.522 C 1242.48 844.973 1239.01 837.768 1236.26 831.563 C 1234.4 827.362 1232.87 823.024 1231.36 818.69 C 1229.83 838.018 1230.33 862.993 1222.61 880.703 L 1221.54 878.906 C 1220.67 880.803 1219.98 882.743 1219.27 884.702 L 1217.6 884.906 C 1218.48 881.775 1219.98 879.359 1218.54 876.35 A 240.708 240.708 0 0 0 1224.03 826.881 C 1224.38 805.957 1216.24 724.916 1227.12 712.03 L 1228.62 712.217 C 1229.56 719.129 1229.15 726.337 1229.77 733.333 C 1231.89 757.106 1237.51 818.887 1247.06 838.437 C 1247.97 840.303 1247.95 840.359 1250 840.99 C 1250.32 840.806 1250.66 840.658 1250.96 840.438 C 1278.28 820.286 1254.31 684.608 1259.03 649.539 C 1264.18 671.798 1268.35 694.911 1271.71 717.504 C 1274.09 733.527 1275.25 750.624 1279.64 766.238 C 1281.48 772.785 1284.08 778.157 1287.89 783.764 z"/>
<path transform="translate(0,0)" fill="rgb(78,56,78)" d="M 1147.35 744.044 C 1146.34 755.512 1143.54 767.036 1141.94 778.473 C 1137.59 809.681 1136.84 843.197 1143.97 874.047 C 1146.77 886.204 1160.06 928.074 1172.44 933.418 C 1174.94 934.494 1175.38 934.148 1177.64 933.066 C 1190.39 916.351 1180.49 820.502 1180.25 795.982 C 1180.11 781.625 1180.78 766.903 1183.62 752.806 C 1184.73 747.322 1187.77 734.259 1192.52 731.106 C 1193.47 732.404 1191.11 771.749 1191.26 776.9 C 1192.17 808.843 1194.57 852.829 1208.5 881.901 L 1207.33 882.295 C 1205.84 881.794 1205.02 881.281 1203.71 880.331 C 1201.8 878.951 1202.95 879.271 1200.67 879.296 C 1197.68 873.51 1195.79 867.212 1193.69 861.068 C 1192.96 879.21 1195.29 927.329 1181.5 939.228 C 1179.6 940.867 1177.98 941.443 1175.47 941.144 C 1167.25 940.166 1158.86 928.568 1154.66 921.911 C 1147.67 910.818 1143.73 898.599 1138.02 886.938 C 1137.19 911.25 1135.36 968.395 1116.33 985.735 C 1114.24 987.641 1111.68 988.859 1108.8 988.36 C 1101.55 987.101 1095.28 977.324 1091.89 971.31 C 1087.4 963.335 1084.35 954.606 1081.2 946.041 C 1080.77 972.392 1074.37 1019.12 1054.39 1037.98 C 1050.66 1041.49 1045.94 1044.08 1040.69 1043.76 C 1034.83 1043.4 1029.8 1038.9 1026.3 1034.55 C 1022.35 1029.62 1019.26 1023.62 1016.23 1018.08 C 1009.3 1037.59 1000.57 1074.49 979.932 1084.64 C 976.785 1086.19 973.312 1086.62 969.965 1085.45 C 961.329 1082.44 955.118 1071.58 951.705 1063.61 A 310.52 310.52 0 0 1 947.763 1053.73 C 941.254 1073.08 929.125 1108.62 909.41 1117.97 C 905.288 1119.93 900.953 1120.38 896.644 1118.75 C 890.181 1116.3 886.504 1110.72 882.923 1105.15 C 881.248 1111.49 879.772 1118.43 876.421 1124.13 L 875.588 1123.78 L 874.594 1124.26 L 873.801 1122.44 C 875.468 1117.89 876.821 1115.32 875.447 1110.48 C 875.71 1104.45 878.401 1098.48 878.664 1092.35 C 879.335 1076.78 877.6 1061.59 879.303 1045.92 C 883.74 1005.1 907.385 925.03 930.947 890.805 C 925.354 913.514 917.446 935.68 910.889 958.129 C 899.792 996.118 889.304 1047.79 891.176 1087.2 C 891.518 1094.41 892.176 1105.77 898.385 1110.46 C 900.482 1112.05 902.834 1112.54 905.404 1112.2 C 922.713 1109.9 937.291 1058.06 940.052 1043.93 C 942.565 1031.06 940.192 1017.35 941.389 1004.26 C 945.429 960.096 958.78 896.147 985.704 860.735 C 982.124 872.84 977.787 884.713 974.303 896.863 C 961.916 940.069 954.289 984.428 956.374 1029.48 C 956.983 1042.65 956.837 1067.41 967.694 1076.46 C 970.121 1078.48 972.517 1078.9 975.576 1078.44 C 995.275 1075.48 1007.63 1020.23 1009.34 1004.48 C 1010.72 991.848 1005.54 978.216 1005.32 965.376 C 1004.56 921.829 1016.23 856.279 1041.73 820.587 C 1021.74 878.85 1012.69 946.044 1027.09 1006.58 C 1029.21 1015.47 1032.72 1032.45 1040.93 1037.55 C 1042.88 1037.8 1044.05 1037.84 1045.96 1037.21 C 1052.36 1035.06 1056.19 1026.33 1058.59 1020.57 C 1070.13 992.817 1072.71 957.878 1072.8 927.885 C 1072.85 910.795 1071.86 893.868 1073.6 876.807 C 1077.18 841.962 1083.55 797.759 1099.95 766.797 C 1098.48 782.142 1094.13 797.557 1091.7 812.852 C 1084.87 856.017 1082.43 912.826 1092.97 955.298 C 1094.82 962.775 1099.1 976.4 1106.68 979.567 C 1108.1 980.164 1109.65 980.286 1111.07 979.698 C 1117.96 976.843 1120.9 964.919 1122.27 958.166 C 1125.04 944.471 1125.41 929.938 1125.94 915.997 C 1127.3 880.141 1125.14 843.66 1129.13 808.011 A 197.823 197.823 0 0 1 1147.35 744.044 z"/>
</svg>